<svg width="242" height="190" viewBox="0 0 242 190" fill="none" xmlns="http://www.w3.org/2000/svg">
<g clip-path="url(#clip0_339_2808)">
<path d="M164.215 21.1646C163.921 21.1646 163.68 20.9239 163.68 20.6296V1.07H144.123C143.828 1.07 143.588 0.82925 143.588 0.535C143.588 0.24075 143.828 0 144.123 0H164.215C164.509 0 164.75 0.24075 164.75 0.535V20.6296C164.75 20.9239 164.509 21.1646 164.215 21.1646Z" fill="#025FC9"/>
<path d="M83.7229 21.1646C83.4287 21.1646 83.188 20.9239 83.188 20.6296V0.535C83.188 0.24075 83.4287 0 83.7229 0H103.815C104.109 0 104.35 0.24075 104.35 0.535C104.35 0.82925 104.109 1.07 103.815 1.07H84.2579V20.6296C84.2579 20.9239 84.0171 21.1646 83.7229 21.1646Z" fill="#025FC9"/>
<path d="M103.815 81.5662H83.7229C83.4287 81.5662 83.188 81.3254 83.188 81.0312V60.9366C83.188 60.6423 83.4287 60.4016 83.7229 60.4016C84.0171 60.4016 84.2579 60.6423 84.2579 60.9366V80.4962H103.815C104.109 80.4962 104.35 80.7369 104.35 81.0312C104.35 81.3254 104.109 81.5662 103.815 81.5662Z" fill="#025FC9"/>
<path d="M164.215 81.5662H144.123C143.828 81.5662 143.588 81.3254 143.588 81.0312C143.588 80.7369 143.828 80.4962 144.123 80.4962H163.68V60.9366C163.68 60.6423 163.921 60.4016 164.215 60.4016C164.509 60.4016 164.75 60.6423 164.75 60.9366V81.0312C164.75 81.3254 164.509 81.5662 164.215 81.5662Z" fill="#025FC9"/>
<path d="M142.031 49.4608C139.308 49.4608 135.986 48.0966 134.472 46.834C134.248 46.6467 134.216 46.3097 134.403 46.0796C134.59 45.8549 134.927 45.8228 135.157 46.0101C136.532 47.1603 139.618 48.3908 142.026 48.3908C142.32 48.3908 142.561 48.6316 142.561 48.9258C142.561 49.2201 142.32 49.4608 142.026 49.4608H142.031Z" fill="#002D94"/>
<path d="M132.375 44.5816C132.231 44.5816 132.087 44.5228 131.98 44.4104C129.481 41.6926 129.037 38.3275 128.567 34.7697C128.486 34.1651 128.406 33.5553 128.315 32.9346C127.855 29.8316 126.293 28.3176 123.544 28.2962C123.249 28.2962 123.009 28.0501 123.014 27.7558C123.014 27.4616 123.255 27.2262 123.549 27.2262C126.866 27.2529 128.829 29.1201 129.374 32.7795C129.465 33.4054 129.551 34.0207 129.631 34.6306C130.097 38.167 130.503 41.2218 132.771 43.6882C132.969 43.9075 132.958 44.2446 132.739 44.4425C132.638 44.5388 132.509 44.5816 132.375 44.5816Z" fill="#002D94"/>
<path d="M119.986 49.4608C119.788 49.4608 119.601 49.3538 119.51 49.1665C117.515 45.2075 115.958 36.1981 118.071 31.0889C118.836 29.2485 120.008 28.05 121.554 27.5418C121.837 27.4508 122.137 27.6006 122.228 27.8842C122.319 28.1624 122.169 28.4674 121.885 28.5583C120.644 28.9703 119.692 29.9547 119.055 31.5008C117.087 36.257 118.595 44.9935 120.457 48.685C120.591 48.9472 120.484 49.2682 120.222 49.4019C120.147 49.4394 120.061 49.4608 119.981 49.4608H119.986Z" fill="#002D94"/>
<path d="M141.25 62.8732C141.25 62.8732 141.229 62.8732 141.218 62.8732C132.188 62.365 125.496 58.5879 120.751 51.3279C120.591 51.0818 120.66 50.7501 120.906 50.5896C121.152 50.4291 121.484 50.4987 121.645 50.7448C126.186 57.6998 132.611 61.3164 141.277 61.8032C141.571 61.8193 141.796 62.0707 141.78 62.365C141.764 62.6485 141.528 62.8679 141.245 62.8679L141.25 62.8732Z" fill="#002D94"/>
<path d="M140.892 59.6204C140.892 59.6204 140.838 59.6204 140.811 59.6151C127.122 57.5125 120.088 48.8776 120.478 34.6466C120.527 32.833 121.709 31.2012 123.228 30.8481C123.233 30.8481 123.292 30.8321 123.298 30.8321C124.116 30.6609 124.993 30.8749 125.699 31.4206C126.411 31.9716 126.833 32.7902 126.871 33.6622C127.261 43.0943 130.648 48.6101 137.527 51.023C138.201 51.2584 139.089 51.3868 140.036 51.5152C141.448 51.7131 143.053 51.9432 144.358 52.6173C144.62 52.751 144.722 53.0774 144.588 53.3395C144.454 53.6017 144.128 53.7033 143.866 53.5696C142.721 52.9811 141.282 52.7778 139.886 52.5798C138.891 52.4407 137.949 52.307 137.174 52.0341C129.931 49.4929 126.213 43.4955 125.806 33.7104C125.785 33.1486 125.507 32.6243 125.047 32.2659C124.592 31.9128 124.036 31.7737 123.517 31.8807C122.436 32.1321 121.591 33.3573 121.554 34.6787C121.179 48.4924 127.716 56.5281 140.983 58.5611C141.277 58.6039 141.475 58.8768 141.432 59.171C141.389 59.4332 141.164 59.6258 140.902 59.6258L140.892 59.6204Z" fill="#002D94"/>
<path d="M141.057 66.8697C141.025 66.8697 140.999 66.8697 140.966 66.8643C122.779 63.7239 113.653 53.4572 113.845 36.3479C113.904 31.1424 115.937 25.1236 121.479 23.8396L121.698 23.7915C124.105 23.2832 126.373 23.7112 128.267 25.0273C130.455 26.5467 131.926 29.1308 132.402 32.3087C132.45 32.6297 132.498 32.9507 132.541 33.2717C132.921 35.9146 133.317 38.6484 134.724 40.9382C136.147 43.2601 137.816 43.7256 140.335 44.4371C140.672 44.5334 141.025 44.6297 141.389 44.7367C144.005 45.5071 146.08 47.5829 146.942 50.29C147.493 52.0234 147.6 54.4309 147.514 56.1055C147.498 56.3997 147.225 56.6298 146.952 56.6137C146.658 56.5977 146.428 56.3462 146.444 56.052C146.524 54.4737 146.434 52.216 145.925 50.6164C145.171 48.2463 143.363 46.4327 141.09 45.7639C140.731 45.6569 140.383 45.5606 140.046 45.4643C137.479 44.7421 135.457 44.175 133.809 41.4946C132.284 39.0122 131.873 36.1714 131.477 33.4215C131.429 33.1005 131.386 32.7848 131.338 32.4638C130.904 29.5855 129.594 27.2529 127.652 25.9047C126.004 24.7598 124.02 24.3907 121.912 24.8347L121.714 24.8775C116.771 26.0278 114.958 31.779 114.904 36.3586C114.723 52.8634 123.549 62.7716 141.138 65.805C141.427 65.8532 141.624 66.1314 141.576 66.4256C141.534 66.6878 141.304 66.8697 141.052 66.8697H141.057Z" fill="#002D94"/>
<path d="M137.987 70.0208C137.955 70.0208 137.917 70.0208 137.885 70.0101C132.29 68.9241 128.979 67.2281 127.005 66.2116C126.743 66.0779 126.636 65.7569 126.775 65.4894C126.908 65.2272 127.235 65.1202 127.497 65.2593C129.423 66.2491 132.648 67.9022 138.094 68.9562C138.383 69.0097 138.575 69.2932 138.516 69.5821C138.468 69.8389 138.244 70.0155 137.992 70.0155L137.987 70.0208Z" fill="#002D94"/>
<path d="M124.801 65.0881C124.71 65.0881 124.613 65.0667 124.528 65.0132C120.243 62.472 116.969 59.3636 115.059 56.0199C114.915 55.7631 115.001 55.4367 115.257 55.2923C115.514 55.1478 115.84 55.2334 115.985 55.4902C118.28 59.5134 122.19 62.3864 125.068 64.093C125.32 64.2428 125.405 64.5745 125.255 64.826C125.154 64.9918 124.977 65.0881 124.795 65.0881H124.801Z" fill="#002D94"/>
<path d="M114.171 53.6284C113.968 53.6284 113.77 53.5107 113.685 53.3074C110.63 46.422 108.239 33.2181 114.166 25.0861C114.343 24.8454 114.674 24.7972 114.915 24.9684C115.156 25.145 115.204 25.4767 115.033 25.7174C109.373 33.4856 111.711 46.2133 114.664 52.8741C114.781 53.1416 114.664 53.4626 114.391 53.5803C114.321 53.6124 114.246 53.6284 114.177 53.6284H114.171Z" fill="#002D94"/>
<path d="M135.098 33.063C134.841 33.063 134.617 32.8811 134.574 32.619C133.579 26.7714 131.471 23.5775 127.534 21.9457C123.832 20.4103 119.537 21.3144 116.327 24.2997C116.113 24.503 115.771 24.487 115.573 24.273C115.37 24.059 115.386 23.7166 115.6 23.5186C119.12 20.2391 123.848 19.26 127.946 20.956C132.268 22.7482 134.563 26.1829 135.628 32.4371C135.676 32.726 135.483 33.0042 135.189 33.0523C135.157 33.0523 135.13 33.0577 135.098 33.0577V33.063Z" fill="#002D94"/>
<path d="M142.031 43.1531C141.967 43.1531 141.903 43.1424 141.838 43.1157C136.928 41.2111 135.751 38.5147 135.216 35.8771C135.157 35.5882 135.344 35.3047 135.633 35.2458C135.922 35.187 136.206 35.3742 136.264 35.6631C136.708 37.8406 137.57 40.3123 142.224 42.1152C142.496 42.2222 142.635 42.5325 142.528 42.8054C142.448 43.0194 142.245 43.1478 142.031 43.1478V43.1531Z" fill="#002D94"/>
<path d="M134.36 72.6959C134.301 72.6959 134.242 72.6852 134.183 72.6638C130.193 71.2728 126.978 70.0209 123.292 68.1002C112.925 62.2901 107.233 51.7399 106.832 37.5731C106.586 29.0773 111.352 19.3082 120.922 17.0879C124.753 16.1998 128.139 16.6599 130.99 18.4682C134.36 20.6029 136.751 24.5137 137.901 29.7835L137.965 30.0724C138.404 32.084 139.003 34.8446 140.073 36.3854C140.94 37.6266 141.983 38.4772 143.09 39.376C143.411 39.6382 143.743 39.9057 144.069 40.1839C148.381 43.8486 149.279 47.6311 149.274 50.1617C149.274 50.4559 149.033 50.6967 148.739 50.6967C148.445 50.6967 148.204 50.4559 148.204 50.1617C148.204 47.8612 147.375 44.3997 143.379 41.0024C143.053 40.7242 142.732 40.4674 142.416 40.2106C141.25 39.2637 140.143 38.3702 139.196 37.0006C138.003 35.2886 137.377 32.4103 136.917 30.3078L136.853 30.0189C135.767 25.038 133.542 21.3572 130.418 19.3831C127.818 17.7353 124.704 17.318 121.163 18.1419C112.246 20.2123 107.672 29.6925 107.897 37.557C108.293 51.3226 113.792 61.5679 123.8 67.1747C127.411 69.0579 130.589 70.2884 134.537 71.6687C134.815 71.765 134.964 72.0699 134.863 72.3481C134.788 72.5675 134.579 72.7066 134.36 72.7066V72.6959Z" fill="#002D94"/>
<path d="M149.584 45.1701C149.584 45.1701 149.568 45.1701 149.558 45.1701C149.263 45.154 149.033 44.9079 149.049 44.6083C149.151 42.4362 147.546 40.5798 146.134 39.1995C145.883 38.9534 145.492 38.6591 145.043 38.3274C143.828 37.4179 142.165 36.1767 141.18 34.2935C140.389 32.7741 140.025 30.8321 139.672 28.9542C139.495 28.0179 139.33 27.1298 139.121 26.3487C139.046 26.0652 139.212 25.7709 139.501 25.6907C139.79 25.6158 140.079 25.7816 140.159 26.0652C140.383 26.8891 140.549 27.7933 140.731 28.7563C141.068 30.5592 141.416 32.421 142.138 33.796C143.01 35.4652 144.561 36.6261 145.695 37.4714C146.177 37.8299 146.589 38.1402 146.894 38.4344C148.461 39.9645 150.248 42.0617 150.13 44.6565C150.114 44.9454 149.879 45.1647 149.595 45.1647L149.584 45.1701Z" fill="#002D94"/>
<path d="M138.163 23.7701C137.955 23.7701 137.752 23.6417 137.666 23.4384C136.029 19.3938 133.162 16.4085 129.594 15.0282C129.321 14.9212 129.182 14.6109 129.289 14.338C129.396 14.0598 129.706 13.9261 129.979 14.0331C133.825 15.5204 136.906 18.7197 138.656 23.0371C138.768 23.31 138.634 23.6256 138.361 23.7326C138.297 23.7594 138.228 23.7701 138.158 23.7701H138.163Z" fill="#002D94"/>
<path d="M115.509 16.6813C115.332 16.6813 115.156 16.5904 115.054 16.4299C114.899 16.1784 114.974 15.8467 115.225 15.6916C118.986 13.3536 123.581 12.5137 127.834 13.3964C128.123 13.4553 128.31 13.7388 128.251 14.0277C128.192 14.3166 127.909 14.4985 127.62 14.445C123.635 13.6211 119.323 14.4076 115.792 16.6011C115.707 16.6546 115.605 16.6813 115.509 16.6813Z" fill="#002D94"/>
<path d="M105.051 29.7032C105.008 29.7032 104.96 29.6979 104.912 29.6872C104.628 29.6123 104.457 29.318 104.532 29.0345C105.768 24.396 108.822 19.9448 112.925 16.8204C113.16 16.6439 113.497 16.6867 113.674 16.9221C113.851 17.1575 113.808 17.4945 113.572 17.6711C109.657 20.651 106.741 24.8936 105.564 29.3073C105.5 29.5481 105.286 29.7032 105.045 29.7032H105.051Z" fill="#002D94"/>
<path d="M104.564 45.7853C104.313 45.7853 104.093 45.6088 104.04 45.3573C103.072 40.5637 102.986 35.6685 103.788 31.2119C103.842 30.923 104.115 30.7304 104.409 30.7786C104.698 30.8321 104.89 31.1103 104.842 31.3992C104.061 35.7273 104.147 40.4835 105.088 45.1433C105.147 45.4322 104.96 45.7158 104.671 45.7746C104.634 45.78 104.601 45.7853 104.564 45.7853Z" fill="#002D94"/>
<path d="M110.384 60.4978C110.213 60.4978 110.042 60.4176 109.94 60.2624C107.667 56.9026 105.778 52.6494 104.628 48.2891C104.553 48.0056 104.725 47.7113 105.008 47.6364C105.297 47.5615 105.586 47.7327 105.661 48.0163C106.784 52.2642 108.614 56.4051 110.823 59.6632C110.989 59.9093 110.924 60.241 110.678 60.4069C110.587 60.4711 110.48 60.4978 110.379 60.4978H110.384Z" fill="#002D94"/>
<path d="M129.032 75.0766C128.968 75.0766 128.904 75.0659 128.839 75.0391C119.628 71.5402 115.327 66.8376 112.016 62.702C111.828 62.472 111.866 62.1349 112.101 61.9477C112.331 61.7604 112.668 61.7979 112.856 62.0333C116.076 66.0565 120.259 70.6307 129.225 74.0387C129.503 74.1457 129.642 74.4506 129.535 74.7288C129.455 74.9428 129.251 75.0766 129.037 75.0766H129.032Z" fill="#002D94"/>
<path d="M121.612 75.8845C121.516 75.8845 121.42 75.8577 121.329 75.8042C107.271 67.073 100.306 55.8915 99.4019 40.6226C98.6316 27.5953 105.634 12.7972 120.5 9.71027C125.346 8.70447 130.615 9.85472 134.959 12.8721C139.768 16.2105 142.94 21.4696 143.893 27.6809C144.636 32.5334 146.535 34.1437 148.06 35.4331C149.023 36.2516 149.937 37.0274 150.178 38.4023C150.226 38.6912 150.034 38.9694 149.745 39.0229C149.451 39.0711 149.178 38.8785 149.124 38.5896C148.948 37.5945 148.284 37.0274 147.37 36.2516C145.797 34.9195 143.647 33.0898 142.839 27.8468C141.929 21.9297 138.918 16.9221 134.355 13.7549C130.252 10.9033 125.282 9.81728 120.724 10.7589C106.452 13.7228 99.7389 27.9912 100.477 40.5637C101.37 55.6614 107.977 66.2545 121.901 74.9001C122.153 75.0552 122.228 75.3869 122.073 75.6384C121.971 75.7989 121.794 75.8898 121.618 75.8898L121.612 75.8845Z" fill="#002D94"/>
<path d="M145.155 60.0805C144.882 60.0805 144.647 59.8719 144.62 59.5937C144.481 58.0743 143.807 57.245 142.224 56.6298C141.33 56.282 140.399 56.1215 139.415 55.9557C138.688 55.8326 137.933 55.7042 137.19 55.4902C136.906 55.41 136.74 55.1104 136.821 54.8268C136.901 54.5433 137.201 54.3774 137.484 54.4577C138.169 54.6556 138.859 54.7733 139.592 54.8964C140.587 55.0676 141.614 55.2441 142.609 55.6293C144.583 56.3944 145.503 57.55 145.685 59.4867C145.711 59.7809 145.497 60.0431 145.203 60.0698C145.187 60.0698 145.171 60.0698 145.155 60.0698V60.0805Z" fill="#002D94"/>
<path d="M134.815 54.7305C134.751 54.7305 134.681 54.7198 134.617 54.6931C131.338 53.393 128.524 51.1407 127.09 48.6583C126.94 48.4015 127.031 48.0751 127.288 47.9253C127.545 47.7755 127.871 47.8665 128.021 48.1233C129.337 50.4024 131.953 52.4835 135.018 53.698C135.291 53.805 135.425 54.1153 135.318 54.3935C135.232 54.6021 135.034 54.7305 134.82 54.7305H134.815Z" fill="#002D94"/>
<path d="M126.379 46.9569C126.186 46.9569 125.999 46.8553 125.908 46.6734C124.004 43.0621 123.062 38.5735 123.265 34.0206C123.276 33.7264 123.554 33.5017 123.822 33.5124C124.116 33.5231 124.346 33.7745 124.335 34.0688C124.143 38.3648 125.063 42.7786 126.855 46.1705C126.994 46.4326 126.892 46.7536 126.63 46.8927C126.55 46.9355 126.464 46.9569 126.379 46.9569Z" fill="#002D94"/>
<path d="M137.982 10.8605C137.864 10.8605 137.746 10.8231 137.645 10.7428C134.836 8.47975 129.663 6.47885 126.352 6.37185C126.058 6.36115 125.822 6.11505 125.833 5.8208C125.844 5.52655 126.095 5.2965 126.384 5.30185C129.947 5.41955 135.301 7.48465 138.308 9.9082C138.538 10.0955 138.575 10.4325 138.388 10.6626C138.281 10.7963 138.126 10.8605 137.971 10.8605H137.982Z" fill="#002D94"/>
<path d="M109.352 10.7C109.186 10.7 109.025 10.6251 108.918 10.4807C108.747 10.2399 108.801 9.90821 109.036 9.73166C112.417 7.28136 117.665 5.60146 123.084 5.23231C123.383 5.21091 123.635 5.43561 123.656 5.72986C123.677 6.02411 123.453 6.28091 123.158 6.30231C117.932 6.65541 112.888 8.26576 109.667 10.5984C109.571 10.6679 109.464 10.7 109.352 10.7Z" fill="#002D94"/>
<path d="M113.54 73.6161C113.444 73.6161 113.348 73.5893 113.257 73.5358C112.925 73.3271 112.572 73.1131 112.208 72.8938C110.309 71.7382 108.153 70.4328 106.747 68.8064C106.554 68.5817 106.575 68.2446 106.8 68.052C107.025 67.8594 107.362 67.8862 107.554 68.1055C108.849 69.5982 110.924 70.8608 112.759 71.9736C113.123 72.1983 113.481 72.4123 113.818 72.621C114.07 72.7761 114.145 73.1078 113.99 73.3592C113.888 73.5197 113.711 73.6107 113.535 73.6107L113.54 73.6161Z" fill="#002D94"/>
<path d="M104.708 66.2705C104.559 66.2705 104.404 66.2063 104.302 66.0832C102.339 63.7613 100.408 60.118 99.2468 57.4804C99.1291 57.2076 99.2468 56.8919 99.5196 56.7742C99.7924 56.6565 100.108 56.7742 100.226 57.0471C101.354 59.6151 103.232 63.1568 105.115 65.3877C105.308 65.6124 105.276 65.9495 105.051 66.1421C104.949 66.2277 104.826 66.2705 104.703 66.2705H104.708Z" fill="#002D94"/>
<path d="M147.653 29.3501C147.391 29.3501 147.161 29.1575 147.124 28.8846C146.434 23.7968 145.529 21.3518 143.62 17.4731C143.491 17.2056 143.598 16.8899 143.866 16.7562C144.133 16.6278 144.454 16.7348 144.583 17.0023C146.546 20.9934 147.477 23.5079 148.188 28.7455C148.226 29.0398 148.022 29.3073 147.728 29.3447C147.707 29.3447 147.68 29.3447 147.659 29.3447L147.653 29.3501Z" fill="#002D94"/>
<path d="M66.4499 136.222C66.1556 136.222 65.9149 135.981 65.9149 135.687V134.349C65.9149 134.055 66.1556 133.814 66.4499 133.814C66.7441 133.814 66.9848 134.055 66.9848 134.349V135.687C66.9848 135.981 66.7441 136.222 66.4499 136.222Z" fill="#002D94"/>
<path d="M66.4499 132.215C66.1556 132.215 65.9149 131.974 65.9149 131.68V129.015C65.9149 128.721 66.1556 128.48 66.4499 128.48C66.7441 128.48 66.9848 128.721 66.9848 129.015V131.68C66.9848 131.974 66.7441 132.215 66.4499 132.215ZM66.4499 126.886C66.1556 126.886 65.9149 126.645 65.9149 126.351V123.687C65.9149 123.392 66.1556 123.152 66.4499 123.152C66.7441 123.152 66.9848 123.392 66.9848 123.687V126.351C66.9848 126.645 66.7441 126.886 66.4499 126.886ZM66.4499 121.557C66.1556 121.557 65.9149 121.317 65.9149 121.022V118.358C65.9149 118.064 66.1556 117.823 66.4499 117.823C66.7441 117.823 66.9848 118.064 66.9848 118.358V121.022C66.9848 121.317 66.7441 121.557 66.4499 121.557ZM66.4499 116.229C66.1556 116.229 65.9149 115.988 65.9149 115.694V113.03C65.9149 112.735 66.1556 112.495 66.4499 112.495C66.7441 112.495 66.9848 112.735 66.9848 113.03V115.694C66.9848 115.988 66.7441 116.229 66.4499 116.229ZM66.4499 110.9C66.1556 110.9 65.9149 110.659 65.9149 110.365V107.701C65.9149 107.407 66.1556 107.166 66.4499 107.166C66.7441 107.166 66.9848 107.407 66.9848 107.701V110.365C66.9848 110.659 66.7441 110.9 66.4499 110.9ZM66.4499 105.572C66.1556 105.572 65.9149 105.331 65.9149 105.037V102.372C65.9149 102.078 66.1556 101.837 66.4499 101.837C66.7441 101.837 66.9848 102.078 66.9848 102.372V105.037C66.9848 105.331 66.7441 105.572 66.4499 105.572ZM66.4499 100.243C66.1556 100.243 65.9149 100.002 65.9149 99.708V97.0437C65.9149 96.7495 66.1556 96.5087 66.4499 96.5087C66.7441 96.5087 66.9848 96.7495 66.9848 97.0437V99.708C66.9848 100.002 66.7441 100.243 66.4499 100.243ZM66.4499 94.9144C66.1556 94.9144 65.9149 94.6737 65.9149 94.3794V91.7151C65.9149 91.4208 66.1556 91.1801 66.4499 91.1801C66.7441 91.1801 66.9848 91.4208 66.9848 91.7151V94.3794C66.9848 94.6737 66.7441 94.9144 66.4499 94.9144ZM66.4499 89.5858C66.1556 89.5858 65.9149 89.345 65.9149 89.0508V86.3865C65.9149 86.0922 66.1556 85.8515 66.4499 85.8515C66.7441 85.8515 66.9848 86.0922 66.9848 86.3865V89.0508C66.9848 89.345 66.7441 89.5858 66.4499 89.5858ZM66.4499 84.2572C66.1556 84.2572 65.9149 84.0164 65.9149 83.7222V81.0579C65.9149 80.7636 66.1556 80.5229 66.4499 80.5229C66.7441 80.5229 66.9848 80.7636 66.9848 81.0579V83.7222C66.9848 84.0164 66.7441 84.2572 66.4499 84.2572ZM66.4499 78.9286C66.1556 78.9286 65.9149 78.6878 65.9149 78.3936V75.7293C65.9149 75.435 66.1556 75.1943 66.4499 75.1943C66.7441 75.1943 66.9848 75.435 66.9848 75.7293V78.3936C66.9848 78.6878 66.7441 78.9286 66.4499 78.9286ZM66.4499 73.6C66.1556 73.6 65.9149 73.3592 65.9149 73.065V70.4007C65.9149 70.1064 66.1556 69.8657 66.4499 69.8657C66.7441 69.8657 66.9848 70.1064 66.9848 70.4007V73.065C66.9848 73.3592 66.7441 73.6 66.4499 73.6ZM66.4499 68.2714C66.1556 68.2714 65.9149 68.0306 65.9149 67.7364V65.0721C65.9149 64.7778 66.1556 64.5371 66.4499 64.5371C66.7441 64.5371 66.9848 64.7778 66.9848 65.0721V67.7364C66.9848 68.0306 66.7441 68.2714 66.4499 68.2714ZM66.4499 62.9428C66.1556 62.9428 65.9149 62.702 65.9149 62.4078V59.7435C65.9149 59.4492 66.1556 59.2085 66.4499 59.2085C66.7441 59.2085 66.9848 59.4492 66.9848 59.7435V62.4078C66.9848 62.702 66.7441 62.9428 66.4499 62.9428ZM66.4499 57.6142C66.1556 57.6142 65.9149 57.3734 65.9149 57.0792V54.4149C65.9149 54.1206 66.1556 53.8799 66.4499 53.8799C66.7441 53.8799 66.9848 54.1206 66.9848 54.4149V57.0792C66.9848 57.3734 66.7441 57.6142 66.4499 57.6142Z" fill="#002D94"/>
<path d="M66.4499 52.2695C66.1556 52.2695 65.9149 52.0288 65.9149 51.7345V50.397C65.9149 50.1027 66.1556 49.862 66.4499 49.862H67.7872C68.0814 49.862 68.3221 50.1027 68.3221 50.397C68.3221 50.6912 68.0814 50.932 67.7872 50.932H66.9848V51.7345C66.9848 52.0288 66.7441 52.2695 66.4499 52.2695Z" fill="#002D94"/>
<path d="M84.2418 50.932H81.4976C81.2034 50.932 80.9627 50.6912 80.9627 50.397C80.9627 50.1027 81.2034 49.862 81.4976 49.862H84.2418C84.536 49.862 84.7768 50.1027 84.7768 50.397C84.7768 50.6912 84.536 50.932 84.2418 50.932ZM78.7587 50.932H76.0145C75.7203 50.932 75.4796 50.6912 75.4796 50.397C75.4796 50.1027 75.7203 49.862 76.0145 49.862H78.7587C79.0529 49.862 79.2937 50.1027 79.2937 50.397C79.2937 50.6912 79.0529 50.932 78.7587 50.932ZM73.2756 50.932H70.5314C70.2372 50.932 69.9965 50.6912 69.9965 50.397C69.9965 50.1027 70.2372 49.862 70.5314 49.862H73.2756C73.5698 49.862 73.8106 50.1027 73.8106 50.397C73.8106 50.6912 73.5698 50.932 73.2756 50.932Z" fill="#002D94"/>
<path d="M88.3234 50.932H86.986C86.6918 50.932 86.4511 50.6912 86.4511 50.397C86.4511 50.1027 86.6918 49.862 86.986 49.862H88.3234C88.6176 49.862 88.8583 50.1027 88.8583 50.397C88.8583 50.6912 88.6176 50.932 88.3234 50.932Z" fill="#002D94"/>
<path d="M61.2502 153.914H55.6334V140.138L49.2891 133.793H20.9802V150.699H15.0264C13.3948 150.699 12.0735 152.02 12.0735 153.652V185.394C12.0735 187.025 13.3948 188.347 15.0264 188.347H61.2502C62.8818 188.347 64.2031 187.025 64.2031 185.394V156.862C64.2031 155.23 62.8818 153.909 61.2502 153.909V153.914Z" fill="#002D94"/>
<path d="M60.5067 136.281V173.201H25.8535V129.935H54.1623L60.5067 136.281Z" fill="white" stroke="#303030" stroke-width="2" stroke-linecap="round" stroke-linejoin="round"/>
<path d="M60.5067 136.281H54.1624V129.935L60.5067 136.281Z" fill="white" stroke="#303030" stroke-width="2" stroke-linecap="round" stroke-linejoin="round"/>
<path d="M35.0437 135.409H51.3165" stroke="#303030" stroke-width="2" stroke-linecap="round" stroke-linejoin="round"/>
<path d="M29.0257 140.352H57.3345" stroke="#303030" stroke-width="2" stroke-linecap="round" stroke-linejoin="round"/>
<path d="M29.0257 143.599H57.3345" stroke="#303030" stroke-width="2" stroke-linecap="round" stroke-linejoin="round"/>
<path d="M29.0257 146.841H57.3345" stroke="#303030" stroke-width="2" stroke-linecap="round" stroke-linejoin="round"/>
<path d="M29.0257 150.089H57.3345" stroke="#303030" stroke-width="2" stroke-linecap="round" stroke-linejoin="round"/>
<path d="M29.0257 153.331H57.3345" stroke="#303030" stroke-width="2" stroke-linecap="round" stroke-linejoin="round"/>
<path d="M29.0257 156.578H57.3345" stroke="#303030" stroke-width="2" stroke-linecap="round" stroke-linejoin="round"/>
<path d="M29.0257 159.821H57.3345" stroke="#303030" stroke-width="2" stroke-linecap="round" stroke-linejoin="round"/>
<path d="M29.0257 163.068H57.3345" stroke="#303030" stroke-width="2" stroke-linecap="round" stroke-linejoin="round"/>
<path d="M29.0257 166.315H57.3345" stroke="#303030" stroke-width="2" stroke-linecap="round" stroke-linejoin="round"/>
<path d="M29.0257 169.558H57.3345" stroke="#303030" stroke-width="2" stroke-linecap="round" stroke-linejoin="round"/>
<path d="M39.9491 148.446C39.4409 147.462 38.4298 146.841 37.3225 146.841H19.8996C18.2681 146.841 16.9468 148.163 16.9468 149.795V181.536C16.9468 183.168 18.2681 184.489 19.8996 184.489H66.1235C67.7551 184.489 69.0764 183.168 69.0764 181.536V153.005C69.0764 151.373 67.7551 150.051 66.1235 150.051H42.5809C41.4736 150.051 40.4572 149.431 39.9544 148.446H39.9491Z" fill="#025FC9"/>
<path d="M75.0088 22.0153H73.6715C73.3773 22.0153 73.1365 21.7745 73.1365 21.4803C73.1365 21.186 73.3773 20.9453 73.6715 20.9453H75.0088C75.303 20.9453 75.5438 21.186 75.5438 21.4803C75.5438 21.7745 75.303 22.0153 75.0088 22.0153Z" fill="#002D94"/>
<path d="M71.0557 22.0153H68.4398C68.1456 22.0153 67.9049 21.7745 67.9049 21.4803C67.9049 21.186 68.1456 20.9453 68.4398 20.9453H71.0557C71.3499 20.9453 71.5906 21.186 71.5906 21.4803C71.5906 21.7745 71.3499 22.0153 71.0557 22.0153ZM65.8186 22.0153H63.2028C62.9086 22.0153 62.6678 21.7745 62.6678 21.4803C62.6678 21.186 62.9086 20.9453 63.2028 20.9453H65.8186C66.1128 20.9453 66.3536 21.186 66.3536 21.4803C66.3536 21.7745 66.1128 22.0153 65.8186 22.0153ZM60.5816 22.0153H57.9658C57.6715 22.0153 57.4308 21.7745 57.4308 21.4803C57.4308 21.186 57.6715 20.9453 57.9658 20.9453H60.5816C60.8758 20.9453 61.1165 21.186 61.1165 21.4803C61.1165 21.7745 60.8758 22.0153 60.5816 22.0153ZM55.3446 22.0153H52.7287C52.4345 22.0153 52.1938 21.7745 52.1938 21.4803C52.1938 21.186 52.4345 20.9453 52.7287 20.9453H55.3446C55.6388 20.9453 55.8795 21.186 55.8795 21.4803C55.8795 21.7745 55.6388 22.0153 55.3446 22.0153ZM50.1075 22.0153H47.4917C47.1975 22.0153 46.9568 21.7745 46.9568 21.4803C46.9568 21.186 47.1975 20.9453 47.4917 20.9453H50.1075C50.4017 20.9453 50.6425 21.186 50.6425 21.4803C50.6425 21.7745 50.4017 22.0153 50.1075 22.0153ZM44.8705 22.0153H42.2547C41.9604 22.0153 41.7197 21.7745 41.7197 21.4803C41.7197 21.186 41.9604 20.9453 42.2547 20.9453H44.8705C45.1647 20.9453 45.4054 21.186 45.4054 21.4803C45.4054 21.7745 45.1647 22.0153 44.8705 22.0153ZM39.6335 22.0153H37.0176C36.7234 22.0153 36.4827 21.7745 36.4827 21.4803C36.4827 21.186 36.7234 20.9453 37.0176 20.9453H39.6335C39.9277 20.9453 40.1684 21.186 40.1684 21.4803C40.1684 21.7745 39.9277 22.0153 39.6335 22.0153ZM34.3964 22.0153H31.7806C31.4864 22.0153 31.2457 21.7745 31.2457 21.4803C31.2457 21.186 31.4864 20.9453 31.7806 20.9453H34.3964C34.6907 20.9453 34.9314 21.186 34.9314 21.4803C34.9314 21.7745 34.6907 22.0153 34.3964 22.0153Z" fill="#002D94"/>
<path d="M27.8274 23.3528C27.5332 23.3528 27.2925 23.112 27.2925 22.8178V21.4803C27.2925 21.186 27.5332 20.9453 27.8274 20.9453H29.1648C29.459 20.9453 29.6997 21.186 29.6997 21.4803C29.6997 21.7745 29.459 22.0153 29.1648 22.0153H28.3624V22.8178C28.3624 23.112 28.1216 23.3528 27.8274 23.3528Z" fill="#002D94"/>
<path d="M27.8274 39.8093C27.5332 39.8093 27.2925 39.5686 27.2925 39.2743V36.5298C27.2925 36.2355 27.5332 35.9948 27.8274 35.9948C28.1216 35.9948 28.3624 36.2355 28.3624 36.5298V39.2743C28.3624 39.5686 28.1216 39.8093 27.8274 39.8093ZM27.8274 34.3256C27.5332 34.3256 27.2925 34.0848 27.2925 33.7906V31.046C27.2925 30.7518 27.5332 30.511 27.8274 30.511C28.1216 30.511 28.3624 30.7518 28.3624 31.046V33.7906C28.3624 34.0848 28.1216 34.3256 27.8274 34.3256ZM27.8274 28.8418C27.5332 28.8418 27.2925 28.6011 27.2925 28.3068V25.5623C27.2925 25.268 27.5332 25.0273 27.8274 25.0273C28.1216 25.0273 28.3624 25.268 28.3624 25.5623V28.3068C28.3624 28.6011 28.1216 28.8418 27.8274 28.8418Z" fill="#002D94"/>
<path d="M27.8274 43.8861C27.5332 43.8861 27.2925 43.6453 27.2925 43.3511V42.0136C27.2925 41.7193 27.5332 41.4786 27.8274 41.4786C28.1216 41.4786 28.3624 41.7193 28.3624 42.0136V43.3511C28.3624 43.6453 28.1216 43.8861 27.8274 43.8861Z" fill="#002D94"/>
<path d="M45.6889 52.0127H1.79204C0.802323 52.0127 0 52.8151 0 53.8049V80.4373C0 81.4271 0.802323 82.2295 1.79204 82.2295H45.6889C46.6787 82.2295 47.481 81.4271 47.481 80.4373V53.8049C47.481 52.8151 46.6787 52.0127 45.6889 52.0127Z" fill="#002D94"/>
<path d="M48.92 48.8776H5.02306C4.03334 48.8776 3.23102 49.68 3.23102 50.6699V77.3022C3.23102 78.292 4.03334 79.0944 5.02306 79.0944H48.92C49.9097 79.0944 50.712 78.292 50.712 77.3022V50.6699C50.712 49.68 49.9097 48.8776 48.92 48.8776Z" fill="#025FC9"/>
<path d="M48.9199 48.8776H5.0284C4.03876 48.8776 3.23636 49.6801 3.23636 50.6699V57.1487H50.7173V50.6699C50.7173 49.6801 49.9149 48.8776 48.9253 48.8776H48.9199Z" fill="white" stroke="#303030" stroke-width="2" stroke-linecap="round" stroke-linejoin="round"/>
<path d="M8.559 65.8104H8.47341C8.0982 65.8104 7.79404 66.1146 7.79404 66.4898V67.7524C7.79404 68.1277 8.0982 68.4319 8.47341 68.4319H8.559C8.9342 68.4319 9.23837 68.1277 9.23837 67.7524V66.4898C9.23837 66.1146 8.9342 65.8104 8.559 65.8104Z" fill="white"/>
<path d="M10.5436 65.8104H10.458C10.0828 65.8104 9.77866 66.1146 9.77866 66.4898V67.7524C9.77866 68.1277 10.0828 68.4319 10.458 68.4319H10.5436C10.9188 68.4319 11.223 68.1277 11.223 67.7524V66.4898C11.223 66.1146 10.9188 65.8104 10.5436 65.8104Z" fill="white"/>
<path d="M12.5282 65.8104H12.4426C12.0674 65.8104 11.7632 66.1146 11.7632 66.4898V67.7524C11.7632 68.1277 12.0674 68.4319 12.4426 68.4319H12.5282C12.9034 68.4319 13.2076 68.1277 13.2076 67.7524V66.4898C13.2076 66.1146 12.9034 65.8104 12.5282 65.8104Z" fill="white"/>
<path d="M14.5128 65.8104H14.4272C14.052 65.8104 13.7479 66.1146 13.7479 66.4898V67.7524C13.7479 68.1277 14.052 68.4319 14.4272 68.4319H14.5128C14.888 68.4319 15.1922 68.1277 15.1922 67.7524V66.4898C15.1922 66.1146 14.888 65.8104 14.5128 65.8104Z" fill="white"/>
<path d="M18.7335 65.8104H18.6479C18.2727 65.8104 17.9685 66.1146 17.9685 66.4898V67.7524C17.9685 68.1277 18.2727 68.4319 18.6479 68.4319H18.7335C19.1087 68.4319 19.4129 68.1277 19.4129 67.7524V66.4898C19.4129 66.1146 19.1087 65.8104 18.7335 65.8104Z" fill="white"/>
<path d="M20.7181 65.8104H20.6325C20.2573 65.8104 19.9531 66.1146 19.9531 66.4898V67.7524C19.9531 68.1277 20.2573 68.4319 20.6325 68.4319H20.7181C21.0933 68.4319 21.3975 68.1277 21.3975 67.7524V66.4898C21.3975 66.1146 21.0933 65.8104 20.7181 65.8104Z" fill="white"/>
<path d="M22.7027 65.8104H22.6171C22.2419 65.8104 21.9377 66.1146 21.9377 66.4898V67.7524C21.9377 68.1277 22.2419 68.4319 22.6171 68.4319H22.7027C23.0779 68.4319 23.3821 68.1277 23.3821 67.7524V66.4898C23.3821 66.1146 23.0779 65.8104 22.7027 65.8104Z" fill="white"/>
<path d="M24.6873 65.8104H24.6017C24.2265 65.8104 23.9224 66.1146 23.9224 66.4898V67.7524C23.9224 68.1277 24.2265 68.4319 24.6017 68.4319H24.6873C25.0625 68.4319 25.3667 68.1277 25.3667 67.7524V66.4898C25.3667 66.1146 25.0625 65.8104 24.6873 65.8104Z" fill="white"/>
<path d="M28.9133 65.8104H28.8277C28.4525 65.8104 28.1484 66.1146 28.1484 66.4898V67.7524C28.1484 68.1277 28.4525 68.4319 28.8277 68.4319H28.9133C29.2885 68.4319 29.5927 68.1277 29.5927 67.7524V66.4898C29.5927 66.1146 29.2885 65.8104 28.9133 65.8104Z" fill="white"/>
<path d="M30.898 65.8104H30.8124C30.4372 65.8104 30.133 66.1146 30.133 66.4898V67.7524C30.133 68.1277 30.4372 68.4319 30.8124 68.4319H30.898C31.2732 68.4319 31.5773 68.1277 31.5773 67.7524V66.4898C31.5773 66.1146 31.2732 65.8104 30.898 65.8104Z" fill="white"/>
<path d="M32.797 65.8104H32.8772C33.2516 65.8104 33.5566 66.1153 33.5566 66.4898V67.7471C33.5566 68.1216 33.2516 68.4265 32.8772 68.4265H32.797C32.4225 68.4265 32.1176 68.1216 32.1176 67.7471V66.4898C32.1176 66.1153 32.4225 65.8104 32.797 65.8104Z" fill="white"/>
<path d="M34.8672 65.8104H34.7816C34.4064 65.8104 34.1022 66.1146 34.1022 66.4898V67.7524C34.1022 68.1277 34.4064 68.4319 34.7816 68.4319H34.8672C35.2424 68.4319 35.5465 68.1277 35.5465 67.7524V66.4898C35.5465 66.1146 35.2424 65.8104 34.8672 65.8104Z" fill="white"/>
<path d="M39.0878 65.8104H39.0022C38.627 65.8104 38.3229 66.1146 38.3229 66.4898V67.7524C38.3229 68.1277 38.627 68.4319 39.0022 68.4319H39.0878C39.463 68.4319 39.7672 68.1277 39.7672 67.7524V66.4898C39.7672 66.1146 39.463 65.8104 39.0878 65.8104Z" fill="white"/>
<path d="M41.0724 65.8104H40.9868C40.6116 65.8104 40.3075 66.1146 40.3075 66.4898V67.7524C40.3075 68.1277 40.6116 68.4319 40.9868 68.4319H41.0724C41.4476 68.4319 41.7518 68.1277 41.7518 67.7524V66.4898C41.7518 66.1146 41.4476 65.8104 41.0724 65.8104Z" fill="white"/>
<path d="M43.057 65.8104H42.9715C42.5963 65.8104 42.2921 66.1146 42.2921 66.4898V67.7524C42.2921 68.1277 42.5963 68.4319 42.9715 68.4319H43.057C43.4322 68.4319 43.7364 68.1277 43.7364 67.7524V66.4898C43.7364 66.1146 43.4322 65.8104 43.057 65.8104Z" fill="white"/>
<path d="M45.0417 65.8104H44.9561C44.5809 65.8104 44.2767 66.1146 44.2767 66.4898V67.7524C44.2767 68.1277 44.5809 68.4319 44.9561 68.4319H45.0417C45.4169 68.4319 45.721 68.1277 45.721 67.7524V66.4898C45.721 66.1146 45.4169 65.8104 45.0417 65.8104Z" fill="white"/>
<path d="M10.0889 70.5237H10.014C9.71856 70.5237 9.47906 70.7633 9.47906 71.0587V71.7382C9.47906 72.0337 9.71856 72.2732 10.014 72.2732H10.0889C10.3843 72.2732 10.6238 72.0337 10.6238 71.7382V71.0587C10.6238 70.7633 10.3843 70.5237 10.0889 70.5237Z" fill="white"/>
<path d="M8.40386 70.5237H8.32897C8.03354 70.5237 7.79404 70.7633 7.79404 71.0587V71.7382C7.79404 72.0337 8.03354 72.2732 8.32897 72.2732H8.40386C8.6993 72.2732 8.9388 72.0337 8.9388 71.7382V71.0587C8.9388 70.7633 8.6993 70.5237 8.40386 70.5237Z" fill="white"/>
<path d="M14.6091 70.5237H14.5342C14.2388 70.5237 13.9993 70.7633 13.9993 71.0587V71.7382C13.9993 72.0337 14.2388 72.2732 14.5342 72.2732H14.6091C14.9046 72.2732 15.1441 72.0337 15.1441 71.7382V71.0587C15.1441 70.7633 14.9046 70.5237 14.6091 70.5237Z" fill="white"/>
<path d="M12.9294 70.5237H12.8545C12.5591 70.5237 12.3196 70.7633 12.3196 71.0587V71.7382C12.3196 72.0337 12.5591 72.2732 12.8545 72.2732H12.9294C13.2248 72.2732 13.4643 72.0337 13.4643 71.7382V71.0587C13.4643 70.7633 13.2248 70.5237 12.9294 70.5237Z" fill="white"/>
<path d="M16.7061 74.6539H8.38247C8.06151 74.6539 7.79404 74.9161 7.79404 75.2371C7.79404 75.5581 8.05616 75.8256 8.38247 75.8256H16.7061C17.027 75.8256 17.2945 75.5634 17.2945 75.2424C17.2945 74.9214 17.0324 74.6539 16.7061 74.6539Z" fill="#303030"/>
<path d="M23.6335 74.6539H19.5145C19.1935 74.6539 18.9261 74.9161 18.9261 75.2424C18.9261 75.5634 19.1882 75.8309 19.5145 75.8309H23.6335C23.9545 75.8309 24.2219 75.5688 24.2219 75.2424C24.2219 74.9214 23.9598 74.6539 23.6335 74.6539Z" fill="#303030"/>
<path d="M37.0551 75.8309H37.6007C37.7398 75.8309 37.8521 75.9433 37.8521 76.0824V76.0984H36.8036V76.0824C36.8036 75.9433 36.916 75.8309 37.0551 75.8309Z" fill="#303030"/>
<path d="M37.2797 74.2741H37.3814C37.5258 74.2741 37.6435 74.3918 37.6435 74.5363V75.831H37.0176V74.5363C37.0176 74.3918 37.1353 74.2741 37.2797 74.2741Z" fill="#303030"/>
<path d="M39.5585 75.8309H40.1042C40.2433 75.8309 40.3556 75.9433 40.3556 76.0824V76.0984H39.3071V76.0824C39.3071 75.9433 39.4195 75.8309 39.5585 75.8309Z" fill="#303030"/>
<path d="M39.7779 74.2741H39.8795C40.024 74.2741 40.1417 74.3918 40.1417 74.5363V75.831H39.5158V74.5363C39.5158 74.3918 39.6335 74.2741 39.7779 74.2741Z" fill="#303030"/>
<path d="M40.5803 76.2697H36.5736C36.4939 76.2697 36.4292 76.3343 36.4292 76.4141V76.4248C36.4292 76.5046 36.4939 76.5693 36.5736 76.5693H40.5803C40.6601 76.5693 40.7247 76.5046 40.7247 76.4248V76.4141C40.7247 76.3343 40.6601 76.2697 40.5803 76.2697Z" fill="#303030"/>
<path d="M36.5736 73.7819H40.5857C40.6659 73.7819 40.7301 73.8461 40.7301 73.9263V73.9424C40.7301 74.0226 40.6659 74.0868 40.5857 74.0868H36.5736C36.4934 74.0868 36.4292 74.0226 36.4292 73.9424V73.9263C36.4292 73.8461 36.4934 73.7819 36.5736 73.7819Z" fill="#303030"/>
<path d="M40.2272 73.5946H36.9374C36.8892 73.5946 36.8785 73.5304 36.9213 73.509L38.5689 72.7386C38.5689 72.7386 38.5957 72.7333 38.6064 72.7386L40.254 73.509C40.2968 73.5304 40.2807 73.5946 40.2379 73.5946H40.2272Z" fill="#303030"/>
<path d="M47.0958 74.884H42.1263C41.8214 74.884 41.5753 74.6379 41.5753 74.3329C41.5753 74.028 41.8214 73.7819 42.1263 73.7819H47.0958C47.4007 73.7819 47.6468 74.028 47.6468 74.3329C47.6468 74.6379 47.4007 74.884 47.0958 74.884Z" fill="#303030"/>
<path d="M47.3954 76.1038H41.8267C41.6876 76.1038 41.5753 75.9914 41.5753 75.8523C41.5753 75.7132 41.6876 75.6009 41.8267 75.6009H47.3954C47.5345 75.6009 47.6468 75.7132 47.6468 75.8523C47.6468 75.9914 47.5345 76.1038 47.3954 76.1038Z" fill="#303030"/>
<path d="M12.7903 59.1871H9.39882C8.59228 59.1871 7.93845 59.841 7.93845 60.6476V62.4292C7.93845 63.2358 8.59228 63.8897 9.39882 63.8897H12.7903C13.5969 63.8897 14.2507 63.2358 14.2507 62.4292V60.6476C14.2507 59.841 13.5969 59.1871 12.7903 59.1871Z" fill="#002D94"/>
<path d="M32.369 51.9111H9.09391C8.5178 51.9111 8.05078 52.3782 8.05078 52.9543V53.0774C8.05078 53.6535 8.5178 54.1206 9.09391 54.1206H32.369C32.9451 54.1206 33.4121 53.6535 33.4121 53.0774V52.9543C33.4121 52.3782 32.9451 51.9111 32.369 51.9111Z" fill="#002D94"/>
<path d="M183.125 136.222C182.831 136.222 182.59 135.981 182.59 135.687V134.349C182.59 134.055 182.831 133.814 183.125 133.814C183.419 133.814 183.66 134.055 183.66 134.349V135.687C183.66 135.981 183.419 136.222 183.125 136.222Z" fill="#002D94"/>
<path d="M183.125 132.215C182.831 132.215 182.59 131.974 182.59 131.68V129.015C182.59 128.721 182.831 128.48 183.125 128.48C183.419 128.48 183.66 128.721 183.66 129.015V131.68C183.66 131.974 183.419 132.215 183.125 132.215ZM183.125 126.886C182.831 126.886 182.59 126.645 182.59 126.351V123.687C182.59 123.392 182.831 123.152 183.125 123.152C183.419 123.152 183.66 123.392 183.66 123.687V126.351C183.66 126.645 183.419 126.886 183.125 126.886ZM183.125 121.557C182.831 121.557 182.59 121.317 182.59 121.022V118.358C182.59 118.064 182.831 117.823 183.125 117.823C183.419 117.823 183.66 118.064 183.66 118.358V121.022C183.66 121.317 183.419 121.557 183.125 121.557ZM183.125 116.229C182.831 116.229 182.59 115.988 182.59 115.694V113.03C182.59 112.735 182.831 112.495 183.125 112.495C183.419 112.495 183.66 112.735 183.66 113.03V115.694C183.66 115.988 183.419 116.229 183.125 116.229ZM183.125 110.9C182.831 110.9 182.59 110.659 182.59 110.365V107.701C182.59 107.407 182.831 107.166 183.125 107.166C183.419 107.166 183.66 107.407 183.66 107.701V110.365C183.66 110.659 183.419 110.9 183.125 110.9ZM183.125 105.572C182.831 105.572 182.59 105.331 182.59 105.037V102.372C182.59 102.078 182.831 101.837 183.125 101.837C183.419 101.837 183.66 102.078 183.66 102.372V105.037C183.66 105.331 183.419 105.572 183.125 105.572ZM183.125 100.243C182.831 100.243 182.59 100.002 182.59 99.708V97.0437C182.59 96.7495 182.831 96.5087 183.125 96.5087C183.419 96.5087 183.66 96.7495 183.66 97.0437V99.708C183.66 100.002 183.419 100.243 183.125 100.243ZM183.125 94.9144C182.831 94.9144 182.59 94.6737 182.59 94.3794V91.7151C182.59 91.4208 182.831 91.1801 183.125 91.1801C183.419 91.1801 183.66 91.4208 183.66 91.7151V94.3794C183.66 94.6737 183.419 94.9144 183.125 94.9144ZM183.125 89.5858C182.831 89.5858 182.59 89.345 182.59 89.0508V86.3865C182.59 86.0922 182.831 85.8515 183.125 85.8515C183.419 85.8515 183.66 86.0922 183.66 86.3865V89.0508C183.66 89.345 183.419 89.5858 183.125 89.5858ZM183.125 84.2572C182.831 84.2572 182.59 84.0164 182.59 83.7222V81.0579C182.59 80.7636 182.831 80.5229 183.125 80.5229C183.419 80.5229 183.66 80.7636 183.66 81.0579V83.7222C183.66 84.0164 183.419 84.2572 183.125 84.2572ZM183.125 78.9286C182.831 78.9286 182.59 78.6878 182.59 78.3936V75.7293C182.59 75.435 182.831 75.1943 183.125 75.1943C183.419 75.1943 183.66 75.435 183.66 75.7293V78.3936C183.66 78.6878 183.419 78.9286 183.125 78.9286ZM183.125 73.6C182.831 73.6 182.59 73.3592 182.59 73.065V70.4007C182.59 70.1064 182.831 69.8657 183.125 69.8657C183.419 69.8657 183.66 70.1064 183.66 70.4007V73.065C183.66 73.3592 183.419 73.6 183.125 73.6ZM183.125 68.2714C182.831 68.2714 182.59 68.0306 182.59 67.7364V65.0721C182.59 64.7778 182.831 64.5371 183.125 64.5371C183.419 64.5371 183.66 64.7778 183.66 65.0721V67.7364C183.66 68.0306 183.419 68.2714 183.125 68.2714ZM183.125 62.9428C182.831 62.9428 182.59 62.702 182.59 62.4078V59.7435C182.59 59.4492 182.831 59.2085 183.125 59.2085C183.419 59.2085 183.66 59.4492 183.66 59.7435V62.4078C183.66 62.702 183.419 62.9428 183.125 62.9428ZM183.125 57.6142C182.831 57.6142 182.59 57.3734 182.59 57.0792V54.4149C182.59 54.1206 182.831 53.8799 183.125 53.8799C183.419 53.8799 183.66 54.1206 183.66 54.4149V57.0792C183.66 57.3734 183.419 57.6142 183.125 57.6142Z" fill="#002D94"/>
<path d="M183.125 52.2695C182.831 52.2695 182.59 52.0288 182.59 51.7345V50.932H181.788C181.493 50.932 181.253 50.6912 181.253 50.397C181.253 50.1027 181.493 49.862 181.788 49.862H183.125C183.419 49.862 183.66 50.1027 183.66 50.397V51.7345C183.66 52.0288 183.419 52.2695 183.125 52.2695Z" fill="#002D94"/>
<path d="M179.049 50.932H176.304C176.01 50.932 175.769 50.6912 175.769 50.397C175.769 50.1027 176.01 49.862 176.304 49.862H179.049C179.343 49.862 179.584 50.1027 179.584 50.397C179.584 50.6912 179.343 50.932 179.049 50.932ZM173.565 50.932H170.821C170.527 50.932 170.286 50.6912 170.286 50.397C170.286 50.1027 170.527 49.862 170.821 49.862H173.565C173.86 49.862 174.1 50.1027 174.1 50.397C174.1 50.6912 173.86 50.932 173.565 50.932ZM168.082 50.932H165.338C165.044 50.932 164.803 50.6912 164.803 50.397C164.803 50.1027 165.044 49.862 165.338 49.862H168.082C168.377 49.862 168.617 50.1027 168.617 50.397C168.617 50.6912 168.377 50.932 168.082 50.932Z" fill="#002D94"/>
<path d="M162.594 50.932H161.257C160.962 50.932 160.722 50.6912 160.722 50.397C160.722 50.1027 160.962 49.862 161.257 49.862H162.594C162.888 49.862 163.129 50.1027 163.129 50.397C163.129 50.6912 162.888 50.932 162.594 50.932Z" fill="#002D94"/>
<path d="M217.58 148.554C211.466 147.746 204.886 143.926 200.938 139.245C199.264 137.254 196.215 137.26 194.546 139.25C190.614 143.926 183.991 147.751 177.861 148.554C175.529 148.859 173.854 150.929 174.02 153.272C174.887 165.524 180.124 180.605 193.733 188.882C196.188 190.375 199.259 190.375 201.719 188.882C215.328 180.605 220.565 165.524 221.432 153.272C221.597 150.929 219.923 148.864 217.591 148.554H217.58Z" fill="#002D94"/>
<path d="M219.891 146.146C213.777 145.338 207.197 141.518 203.249 136.837C201.575 134.847 198.526 134.852 196.857 136.842C192.925 141.518 186.302 145.344 180.172 146.146C177.84 146.451 176.165 148.521 176.331 150.865C177.198 163.116 182.435 178.198 196.044 186.474C198.499 187.967 201.569 187.967 204.03 186.474C217.639 178.203 222.876 163.116 223.743 150.865C223.908 148.521 222.234 146.456 219.902 146.146H219.891Z" fill="#025FC9"/>
<path d="M204.854 142.348C207.325 144.359 210.161 146.034 213.087 147.216" stroke="white" stroke-width="2" stroke-linecap="round" stroke-linejoin="round"/>
<path d="M209.963 177.786C209.642 178.144 209.31 178.503 208.973 178.856" stroke="white" stroke-width="2" stroke-linecap="round" stroke-linejoin="round"/>
<path d="M220.447 150.972C220.105 155.813 218.661 165.588 212.776 174.185" stroke="white" stroke-width="2" stroke-linecap="round" stroke-linejoin="round"/>
<path d="M205.51 160.071C206.226 157.037 204.348 153.997 201.314 153.281C198.281 152.565 195.241 154.444 194.525 157.478C193.809 160.512 195.688 163.552 198.721 164.268C201.755 164.984 204.794 163.105 205.51 160.071Z" fill="#002D94"/>
<path d="M203.538 172.522H196.52L197.317 162.918H202.736L203.538 172.522Z" fill="#002D94"/>
<path d="M175.909 22.0153H174.571C174.277 22.0153 174.036 21.7745 174.036 21.4803C174.036 21.186 174.277 20.9453 174.571 20.9453H175.909C176.203 20.9453 176.443 21.186 176.443 21.4803C176.443 21.7745 176.203 22.0153 175.909 22.0153Z" fill="#002D94"/>
<path d="M217.794 22.0153H215.178C214.884 22.0153 214.643 21.7745 214.643 21.4803C214.643 21.186 214.884 20.9453 215.178 20.9453H217.794C218.088 20.9453 218.329 21.186 218.329 21.4803C218.329 21.7745 218.088 22.0153 217.794 22.0153ZM212.557 22.0153H209.941C209.647 22.0153 209.406 21.7745 209.406 21.4803C209.406 21.186 209.647 20.9453 209.941 20.9453H212.557C212.851 20.9453 213.092 21.186 213.092 21.4803C213.092 21.7745 212.851 22.0153 212.557 22.0153ZM207.32 22.0153H204.704C204.41 22.0153 204.169 21.7745 204.169 21.4803C204.169 21.186 204.41 20.9453 204.704 20.9453H207.32C207.614 20.9453 207.855 21.186 207.855 21.4803C207.855 21.7745 207.614 22.0153 207.32 22.0153ZM202.083 22.0153H199.467C199.173 22.0153 198.932 21.7745 198.932 21.4803C198.932 21.186 199.173 20.9453 199.467 20.9453H202.083C202.377 20.9453 202.618 21.186 202.618 21.4803C202.618 21.7745 202.377 22.0153 202.083 22.0153ZM196.846 22.0153H194.23C193.936 22.0153 193.695 21.7745 193.695 21.4803C193.695 21.186 193.936 20.9453 194.23 20.9453H196.846C197.14 20.9453 197.381 21.186 197.381 21.4803C197.381 21.7745 197.14 22.0153 196.846 22.0153ZM191.609 22.0153H188.993C188.699 22.0153 188.458 21.7745 188.458 21.4803C188.458 21.186 188.699 20.9453 188.993 20.9453H191.609C191.903 20.9453 192.144 21.186 192.144 21.4803C192.144 21.7745 191.903 22.0153 191.609 22.0153ZM186.372 22.0153H183.756C183.462 22.0153 183.221 21.7745 183.221 21.4803C183.221 21.186 183.462 20.9453 183.756 20.9453H186.372C186.666 20.9453 186.907 21.186 186.907 21.4803C186.907 21.7745 186.666 22.0153 186.372 22.0153ZM181.135 22.0153H178.519C178.225 22.0153 177.984 21.7745 177.984 21.4803C177.984 21.186 178.225 20.9453 178.519 20.9453H181.135C181.429 20.9453 181.67 21.186 181.67 21.4803C181.67 21.7745 181.429 22.0153 181.135 22.0153Z" fill="#002D94"/>
<path d="M221.747 23.3528C221.453 23.3528 221.212 23.112 221.212 22.8178V22.0153H220.41C220.116 22.0153 219.875 21.7745 219.875 21.4803C219.875 21.186 220.116 20.9453 220.41 20.9453H221.747C222.041 20.9453 222.282 21.186 222.282 21.4803V22.8178C222.282 23.112 222.041 23.3528 221.747 23.3528Z" fill="#002D94"/>
<path d="M221.747 39.8093C221.453 39.8093 221.212 39.5686 221.212 39.2743V36.5298C221.212 36.2355 221.453 35.9948 221.747 35.9948C222.041 35.9948 222.282 36.2355 222.282 36.5298V39.2743C222.282 39.5686 222.041 39.8093 221.747 39.8093ZM221.747 34.3256C221.453 34.3256 221.212 34.0848 221.212 33.7906V31.046C221.212 30.7518 221.453 30.511 221.747 30.511C222.041 30.511 222.282 30.7518 222.282 31.046V33.7906C222.282 34.0848 222.041 34.3256 221.747 34.3256ZM221.747 28.8418C221.453 28.8418 221.212 28.6011 221.212 28.3068V25.5623C221.212 25.268 221.453 25.0273 221.747 25.0273C222.041 25.0273 222.282 25.268 222.282 25.5623V28.3068C222.282 28.6011 222.041 28.8418 221.747 28.8418Z" fill="#002D94"/>
<path d="M221.747 43.8861C221.453 43.8861 221.212 43.6453 221.212 43.3511V42.0136C221.212 41.7193 221.453 41.4786 221.747 41.4786C222.041 41.4786 222.282 41.7193 222.282 42.0136V43.3511C222.282 43.6453 222.041 43.8861 221.747 43.8861Z" fill="#002D94"/>
<path d="M234.211 53.7247H202.853C200.33 53.7247 198.285 55.7703 198.285 58.2936V89.6553C198.285 92.1787 200.33 94.2242 202.853 94.2242H234.211C236.734 94.2242 238.78 92.1787 238.78 89.6553V58.2936C238.78 55.7703 236.734 53.7247 234.211 53.7247Z" fill="#002D94"/>
<path d="M237.426 50.7341H206.068C203.545 50.7341 201.5 52.7796 201.5 55.303V86.6647C201.5 89.188 203.545 91.2336 206.068 91.2336H237.426C239.949 91.2336 241.995 89.188 241.995 86.6647V55.303C241.995 52.7796 239.949 50.7341 237.426 50.7341Z" fill="#025FC9"/>
<path d="M221.747 70.9518C225.943 70.9518 229.343 67.5505 229.343 63.3548C229.343 59.159 225.943 55.7578 221.747 55.7578C217.552 55.7578 214.151 59.159 214.151 63.3548C214.151 67.5505 217.552 70.9518 221.747 70.9518Z" fill="white" stroke="#002D94" stroke-width="2" stroke-miterlimit="10"/>
<path d="M221.747 73.2362C215.141 73.2362 208.887 76.703 206.646 85.6696H236.843C234.602 76.703 228.354 73.2362 221.742 73.2362H221.747Z" fill="white" stroke="#002D94" stroke-width="2" stroke-miterlimit="10"/>
</g>
<defs>
<clipPath id="clip0_339_2808">
<rect width="242" height="190" fill="white"/>
</clipPath>
</defs>
</svg>
