<svg width="261" height="46" viewBox="0 0 261 46" fill="none" xmlns="http://www.w3.org/2000/svg">
<path d="M18.3936 35.8655C15.8087 35.8655 13.4047 35.41 11.1851 34.4991C8.96545 33.5882 7.01024 32.3123 5.31943 30.6748C3.62862 29.0373 2.32051 27.132 1.39161 24.9626C0.46271 22.7931 0 20.4499 0 17.9327C0 15.4156 0.46271 13.0723 1.39161 10.9029C2.31703 8.73343 3.62862 6.82821 5.31943 5.19069C7.01024 3.54969 8.96545 2.27723 11.1851 1.36634C13.4047 0.455446 15.8087 0 18.3936 0C20.9785 0 23.3895 0.455446 25.6265 1.36634C27.8635 2.27723 29.8187 3.55317 31.4921 5.19069C33.1656 6.82821 34.4667 8.73343 35.3921 10.9029C36.321 13.0723 36.7837 15.4156 36.7837 17.9327C36.7837 20.4499 36.321 22.7931 35.3921 24.9626C34.4632 27.132 33.1621 29.0338 31.4921 30.6748C29.8187 32.3123 27.8635 33.5882 25.6265 34.4991C23.3895 35.41 20.9785 35.8655 18.3936 35.8655ZM18.3936 29.2598C19.9835 29.2598 21.4412 28.9712 22.7667 28.3906C24.0923 27.81 25.2508 27.0173 26.2458 26.0056C27.2408 24.9939 28.0096 23.7944 28.5558 22.4037C29.1021 21.0131 29.3769 19.5216 29.3769 17.9327C29.3769 16.3439 29.1021 14.8107 28.5558 13.4374C28.0096 12.0641 27.2373 10.8716 26.2458 9.85987C25.2508 8.84816 24.0923 8.05548 22.7667 7.47487C21.4412 6.89426 20.0009 6.6057 18.4423 6.6057C16.8837 6.6057 15.3947 6.89426 14.0692 7.47487C12.7437 8.05548 11.5852 8.84816 10.5902 9.85987C9.59515 10.8716 8.81585 12.0641 8.25225 13.4374C7.68865 14.8107 7.40685 16.3091 7.40685 17.9327C7.40685 19.5563 7.68865 21.0131 8.25225 22.4037C8.81585 23.7944 9.59515 24.9939 10.5902 26.0056C11.5852 27.0173 12.7437 27.81 14.0692 28.3906C15.3947 28.9712 16.835 29.2598 18.3936 29.2598ZM41.3065 34.2766V10.4822C41.3065 9.90507 41.7727 9.4392 42.3502 9.4392H48.1149V11.5252C50.1014 9.80425 52.5228 8.94203 55.3722 8.94203C57.3935 8.94203 59.1747 9.37314 60.716 10.2319C62.2572 11.0941 63.4574 12.3005 64.3202 13.8581C65.183 15.4156 65.6109 17.22 65.6109 19.2713V35.3162H59.8462C59.2687 35.3162 58.8025 34.8503 58.8025 34.2731V20.2656C58.8025 18.5759 58.3224 17.2443 57.3622 16.2674C56.402 15.2905 55.0904 14.8037 53.4344 14.8037C52.2724 14.8037 51.2565 15.0262 50.3763 15.4747C49.4996 15.9197 48.7446 16.5594 48.1149 17.3869V35.3162H42.3502C41.7727 35.3162 41.3065 34.8503 41.3065 34.2731V34.2766ZM83.5036 35.8168C80.9187 35.8168 78.5738 35.2223 76.469 34.0298C74.3642 32.8373 72.6977 31.231 71.4731 29.2111C70.2485 27.1911 69.6327 24.9243 69.6327 22.4072C69.6327 19.8901 70.2207 17.6233 71.3966 15.5999C72.5725 13.5799 74.1728 11.9737 76.1941 10.7812C78.2155 9.58869 80.4699 8.99418 82.9539 8.99418C85.4379 8.99418 87.6436 9.59912 89.564 10.8055C91.4845 12.0154 93.0013 13.6703 94.1111 15.7737C95.2209 17.8771 95.7776 20.2517 95.7776 22.9009V23.6449C95.7776 24.2221 95.3114 24.6879 94.7339 24.6879H76.5907C76.8899 25.7136 77.377 26.6418 78.0554 27.4693C78.7338 28.2967 79.5792 28.9364 80.5916 29.3815C81.604 29.8299 82.686 30.0525 83.848 30.0525C85.01 30.0525 86.078 29.8786 87.0557 29.531C87.4731 29.3815 87.8663 29.2041 88.235 28.999C89.1396 28.4914 90.2738 28.6618 91.0392 29.3606L94.0381 32.0898C92.4482 33.3831 90.8165 34.3253 89.1431 34.9233C87.4697 35.5178 85.5875 35.8168 83.5001 35.8168H83.5036ZM76.4968 19.824H89.0735C88.8404 18.7984 88.4194 17.8945 87.8071 17.1157C87.1948 16.3369 86.4642 15.725 85.6188 15.2765C84.7734 14.8315 83.8376 14.6055 82.8112 14.6055C81.7849 14.6055 80.8386 14.8211 79.9793 15.2522C79.1165 15.6833 78.3894 16.2883 77.791 17.067C77.1961 17.8458 76.7647 18.7637 76.5003 19.824H76.4968ZM112.832 35.8168C110.014 35.8168 107.265 35.2953 104.58 34.2523C101.894 33.2093 99.5106 31.7282 97.4232 29.8056L100.081 26.4784C100.874 25.4876 102.308 25.3033 103.327 26.0577C104.74 27.1042 106.103 27.9143 107.415 28.4879C109.269 29.298 111.242 29.7048 113.329 29.7048C114.787 29.7048 116.046 29.531 117.107 29.1833C118.169 28.8356 118.99 28.3315 119.567 27.6674C120.148 27.0069 120.437 26.2281 120.437 25.3311C120.437 24.1386 120.006 23.2208 119.146 22.5741C118.283 21.9274 116.808 21.4233 114.721 21.0583L107.812 19.9144C104.861 19.386 102.617 18.3256 101.076 16.7368C99.5349 15.1479 98.7661 13.0967 98.7661 10.5761C98.7661 8.424 99.3192 6.55355 100.429 4.9647C101.539 3.37586 103.115 2.15902 105.15 1.31419C107.189 0.469352 109.614 0.0486736 112.432 0.0486736C114.982 0.0486736 117.535 0.479782 120.086 1.33852C122.636 2.20074 124.873 3.39324 126.797 4.91603L124.26 8.424C123.53 9.43224 122.145 9.67213 121.094 9.00461C118.057 7.07157 115.02 6.10853 111.983 6.10853C110.657 6.10853 109.513 6.27541 108.553 6.6057C107.592 6.93598 106.855 7.39143 106.34 7.97204C105.825 8.55264 105.568 9.23755 105.568 10.0337C105.568 11.0941 105.957 11.9146 106.737 12.4917C107.516 13.0723 108.782 13.5104 110.539 13.8094L117.101 14.9011C120.58 15.4643 123.189 16.5664 124.928 18.2039C126.668 19.8414 127.538 22.0039 127.538 24.6845C127.538 26.9373 126.932 28.8982 125.725 30.5705C124.514 32.2428 122.81 33.5361 120.607 34.4435C118.402 35.3544 115.81 35.8098 112.828 35.8098L112.832 35.8168ZM133.16 46C132.565 46 131.991 45.9757 131.445 45.927C130.898 45.8783 130.443 45.8192 130.077 45.7532V42.4468C130.077 41.15 131.138 40.0896 132.436 40.0931H132.464C134.951 40.0931 136.67 38.918 137.634 36.5643L138.03 35.57L128.487 10.8612C128.223 10.1763 128.727 9.44267 129.462 9.44267H135.494L141.906 27.0764L148.944 10.0859C149.104 9.69647 149.487 9.44267 149.908 9.44267H156.615L144.637 37.357C143.743 39.443 142.765 41.1222 141.704 42.3982C140.643 43.6741 139.425 44.5919 138.051 45.1552C136.677 45.7184 135.045 46 133.156 46H133.16ZM159.305 34.2766V10.4822C159.305 9.90507 159.771 9.4392 160.348 9.4392H166.113V11.5252C168.1 9.80425 170.521 8.94203 173.37 8.94203C175.392 8.94203 177.173 9.37314 178.714 10.2319C180.255 11.0941 181.456 12.3005 182.318 13.8581C183.181 15.4156 183.609 17.22 183.609 19.2713V35.3162H177.844C177.267 35.3162 176.801 34.8503 176.801 34.2731V20.2656C176.801 18.5759 176.321 17.2443 175.36 16.2674C174.4 15.2905 173.092 14.8037 171.432 14.8037C170.27 14.8037 169.255 15.0262 168.374 15.4747C167.498 15.9197 166.743 16.5594 166.113 17.3869V35.3162H160.348C159.771 35.3162 159.305 34.8503 159.305 34.2731V34.2766ZM201.206 35.8168C198.652 35.8168 196.353 35.2292 194.297 34.0541C192.241 32.879 190.619 31.2728 189.426 29.2354C188.233 27.1981 187.638 24.9243 187.638 22.4072C187.638 19.8901 188.233 17.5712 189.426 15.5512C190.619 13.5313 192.241 11.925 194.297 10.7325C196.353 9.54002 198.652 8.94551 201.206 8.94551C203.259 8.94551 205.231 9.34185 207.12 10.138C209.009 10.9342 210.617 12.0745 211.942 13.566L209.41 16.2465C208.564 17.14 207.176 17.2756 206.191 16.5316C205.722 16.177 205.245 15.885 204.758 15.652C203.714 15.1549 202.577 14.908 201.352 14.908C200.061 14.908 198.882 15.2313 197.824 15.878C196.763 16.5247 195.928 17.4112 195.313 18.5342C194.7 19.6606 194.394 20.9505 194.394 22.4107C194.394 23.8709 194.707 25.0669 195.337 26.2107C195.967 27.3545 196.819 28.2481 197.897 28.8947C198.972 29.5414 200.176 29.8612 201.502 29.8612C202.66 29.8612 203.746 29.6213 204.758 29.1416C205.21 28.926 205.656 28.6618 206.091 28.3524C207.075 27.6501 208.425 27.7822 209.26 28.6548L211.737 31.2519C210.411 32.6773 208.822 33.7934 206.967 34.6069C205.109 35.417 203.189 35.8237 201.202 35.8237L201.206 35.8168ZM215.72 35.3196V1.59232C215.72 1.01519 216.187 0.549316 216.764 0.549316H222.978V34.2766C222.978 34.8538 222.512 35.3196 221.934 35.3196H215.72ZM229.24 34.2766V1.59232C229.24 1.01519 229.706 0.549316 230.284 0.549316H242.61C245.226 0.549316 247.647 0.987378 249.867 1.8635C252.087 2.7431 254.025 3.97385 255.681 5.56269C257.337 7.15154 258.638 9.00809 259.584 11.1254C260.527 13.2462 261 15.5303 261 17.9814C261 20.4325 260.537 22.7097 259.608 24.8131C258.679 26.9165 257.378 28.7556 255.708 30.3271C254.035 31.8986 252.087 33.1258 249.867 34.002C247.647 34.8816 245.226 35.3196 242.61 35.3196H230.284C229.706 35.3196 229.24 34.8538 229.24 34.2766ZM236.497 28.9121H242.561C244.085 28.9121 245.518 28.6374 246.861 28.0916C248.204 27.5458 249.37 26.7739 250.365 25.7831C251.36 24.7888 252.135 23.631 252.702 22.3064C253.266 20.9818 253.548 19.5424 253.548 17.9849C253.548 16.4273 253.266 14.981 252.702 13.639C252.139 12.297 251.36 11.1289 250.365 10.138C249.37 9.14368 248.201 8.36838 246.861 7.80168C245.518 7.23846 244.085 6.95684 242.561 6.95684H236.497V28.9121ZM25.2229 18.5863C25.1568 18.5238 25.042 18.5203 24.969 18.5759C24.9342 18.6037 24.8994 18.6315 24.8646 18.6594C24.8124 18.7011 24.7915 18.7637 24.8124 18.8228C24.8472 18.9166 24.882 19.0175 24.9203 19.1218C24.9446 19.1878 25.0142 19.233 25.0942 19.233C25.1116 19.233 25.129 19.233 25.1464 19.2261C25.2403 19.2017 25.296 19.1148 25.2682 19.0348C25.2438 18.9618 25.2195 18.8923 25.1951 18.8262C25.2021 18.8193 25.2125 18.8123 25.2195 18.8089C25.2925 18.7498 25.296 18.6524 25.2299 18.5898L25.2229 18.5863ZM25.049 21.093C24.9794 20.6272 24.8716 20.1543 24.715 19.6502C24.6906 19.5668 24.5898 19.5181 24.4958 19.539C24.3984 19.5598 24.3427 19.6467 24.3671 19.7267C24.5167 20.2169 24.6245 20.6758 24.6906 21.1278C24.6976 21.1765 24.7046 21.2286 24.7115 21.2773C24.722 21.3573 24.7985 21.4164 24.889 21.4164C24.8959 21.4164 24.9029 21.4164 24.9098 21.4164C25.0072 21.4059 25.0803 21.3295 25.0699 21.246C25.0629 21.1939 25.0559 21.1417 25.049 21.093ZM25.2264 17.9119C25.2925 17.8493 25.2856 17.7485 25.209 17.6928C25.136 17.6372 25.0212 17.6442 24.9551 17.7067C24.7185 17.9362 24.461 18.1518 24.1827 18.3465C24.0366 18.4473 23.9774 18.6211 24.0366 18.7741C24.0783 18.8853 24.1236 19.0001 24.1653 19.1252C24.1897 19.1913 24.2592 19.233 24.3358 19.233C24.3532 19.233 24.3706 19.233 24.388 19.2261C24.4819 19.2017 24.5376 19.1148 24.5063 19.0314C24.461 18.9062 24.4193 18.788 24.3741 18.6767C24.3601 18.642 24.3741 18.6037 24.4054 18.5829C24.6976 18.3777 24.9759 18.1518 25.2229 17.9084L25.2264 17.9119ZM12.2183 13.7329C12.2427 13.7433 12.2705 13.7503 12.2984 13.7503C12.3645 13.7503 12.4271 13.719 12.4584 13.6668C12.5941 13.4374 12.7402 13.2079 12.8933 12.9889C12.9455 12.9159 12.9176 12.822 12.8306 12.7768C12.7471 12.7316 12.6358 12.756 12.5836 12.829C12.4236 13.0549 12.274 13.2914 12.1348 13.5278C12.0896 13.6043 12.1244 13.6981 12.2149 13.7364L12.2183 13.7329ZM23.5356 18.4508C23.5217 18.4125 23.5356 18.3743 23.5739 18.3534C24.2488 17.9571 24.8124 17.453 25.2438 16.8619C25.296 16.7889 25.2716 16.695 25.1881 16.6498C25.1047 16.6046 24.9933 16.6255 24.9411 16.6985C24.5341 17.2548 24.0088 17.7241 23.3721 18.0996C23.2016 18.2004 23.132 18.3777 23.1947 18.5481C23.219 18.6107 23.2434 18.6802 23.2747 18.7567C23.6817 19.824 24.141 21.2391 24.0435 22.6993C24.0366 22.7862 24.1131 22.8557 24.214 22.8627C24.214 22.8627 24.221 22.8627 24.2245 22.8627C24.3184 22.8627 24.3984 22.8001 24.4054 22.7167C24.5028 21.2043 24.0366 19.7545 23.6191 18.6594C23.5913 18.5829 23.5634 18.5133 23.5391 18.4508H23.5356ZM13.0289 13.7329C13.0568 13.7468 13.0846 13.7503 13.1159 13.7503C13.1785 13.7503 13.2412 13.7225 13.2725 13.6703C14.024 12.4882 15.0294 11.4765 16.261 10.6665C16.341 10.6143 16.3549 10.517 16.2958 10.4509C16.2366 10.3849 16.1218 10.3709 16.0418 10.4231C14.7719 11.261 13.7317 12.304 12.9559 13.5243C12.9072 13.6008 12.942 13.6947 13.0289 13.7329ZM11.7869 17.1261C11.7869 17.1261 11.8043 17.1261 11.8113 17.1261C11.8983 17.1261 11.9748 17.0705 11.9887 16.994C12.1557 15.9858 12.5001 15.0123 13.0116 14.1014C13.0533 14.0249 13.0185 13.9311 12.9281 13.8963C12.8376 13.8581 12.7298 13.8928 12.688 13.9693C12.1592 14.908 11.8043 15.9128 11.6304 16.9523C11.6165 17.0357 11.686 17.1157 11.7835 17.1261H11.7869ZM12.3575 21.5693C12.3749 21.5693 12.3958 21.5693 12.4132 21.5624C12.5071 21.5346 12.5593 21.4477 12.528 21.3677C12.1244 20.2899 11.773 19.087 11.9087 17.6094C11.9157 17.526 11.8426 17.4495 11.7452 17.4425C11.6478 17.4356 11.5608 17.4981 11.5504 17.5851C11.4077 19.1148 11.7695 20.3525 12.1835 21.4616C12.2079 21.5276 12.2775 21.5693 12.354 21.5693H12.3575ZM23.1355 19.9596C23.0381 19.9805 22.979 20.0639 23.0033 20.1474C23.3756 21.4198 23.4312 22.5672 23.1703 23.6588C23.1494 23.7423 23.2121 23.8257 23.3095 23.8396C23.3234 23.8396 23.3338 23.8396 23.3443 23.8396C23.4278 23.8396 23.5043 23.7875 23.5217 23.7145C23.7931 22.5776 23.7374 21.3816 23.3512 20.0639C23.3269 19.9805 23.2295 19.9318 23.132 19.9527L23.1355 19.9596ZM22.6624 17.7554C22.6137 17.7798 22.565 17.8145 22.5232 17.8528C22.3736 17.9988 22.3214 18.2143 22.391 18.416C22.4397 18.5551 22.5058 18.7358 22.5893 18.9514C22.6276 19.0557 22.6693 19.1635 22.7146 19.2817C22.7389 19.3477 22.8085 19.3895 22.885 19.3895C22.9024 19.3895 22.9233 19.3895 22.9407 19.3825C23.0346 19.3582 23.0868 19.2713 23.059 19.1878C23.0138 19.0696 22.972 18.9584 22.9337 18.8541C22.8537 18.642 22.7876 18.4647 22.7389 18.3256C22.7041 18.2283 22.725 18.1239 22.7946 18.0544C22.812 18.0405 22.8259 18.0266 22.8433 18.0196C24.0122 17.4356 24.8611 16.4969 25.2334 15.3843C25.2612 15.3009 25.2055 15.2174 25.1116 15.1931C25.0177 15.1688 24.9168 15.2174 24.889 15.3009C24.5445 16.3404 23.7513 17.2096 22.6659 17.7554H22.6624ZM14.7406 12.3561C14.678 12.4222 14.6884 12.5195 14.765 12.5752C14.7998 12.5995 14.838 12.6099 14.8798 12.6099C14.932 12.6099 14.9842 12.5891 15.019 12.5543C15.7983 11.7442 16.7237 11.0663 17.7709 10.5413C17.8996 10.4752 18.0353 10.4161 18.1709 10.3605C18.2614 10.3258 18.2997 10.2319 18.2579 10.1554C18.2162 10.0789 18.1083 10.0441 18.0179 10.0789C17.8718 10.138 17.7256 10.2006 17.5865 10.2736C16.501 10.816 15.5443 11.5183 14.7372 12.3561H14.7406ZM13.2238 14.8385C13.2481 14.8454 13.2725 14.8524 13.2934 14.8524C13.3629 14.8524 13.429 14.8176 13.4604 14.7585C13.7804 14.1119 14.1909 13.5 14.6745 12.9367C14.7337 12.8672 14.7163 12.7699 14.6363 12.7212C14.5562 12.669 14.4449 12.6864 14.3858 12.7525C13.8848 13.3331 13.4638 13.9693 13.1298 14.6368C13.0916 14.7168 13.1298 14.8072 13.2238 14.8385ZM12.8411 15.2765C12.5384 16.0345 12.3436 16.8271 12.2705 17.6337C12.1383 19.0418 12.4862 20.2239 12.8411 21.1904C12.8654 21.2564 12.935 21.2982 13.0116 21.2982C13.029 21.2982 13.0463 21.2982 13.0672 21.2912C13.1612 21.2669 13.2133 21.18 13.1855 21.0965C12.8237 20.1091 12.5036 19.0105 12.6289 17.6581C12.7019 16.8793 12.8863 16.111 13.182 15.3774C13.2133 15.2974 13.1646 15.207 13.0707 15.1792C12.9768 15.1514 12.8759 15.1931 12.8411 15.2765ZM12.9628 22.0074C13.0498 21.9657 13.0777 21.8718 13.0289 21.7953C12.9802 21.7223 12.8689 21.6945 12.7819 21.7397C12.7089 21.7745 12.6323 21.8127 12.5454 21.8544C12.4445 21.9031 12.3436 21.9518 12.2496 22.0074C12.1662 22.0526 12.1418 22.15 12.194 22.2195C12.2288 22.2647 12.2879 22.289 12.3471 22.289C12.3819 22.289 12.4132 22.2821 12.4445 22.2647C12.5349 22.216 12.6254 22.1673 12.7193 22.1221C12.8063 22.0804 12.8863 22.0422 12.9594 22.0039L12.9628 22.0074ZM22.2901 19.6676C22.1962 19.6919 22.1405 19.7789 22.1684 19.8588C22.5441 20.9679 22.9511 22.6541 22.1544 24.4654C22.1196 24.5454 22.1649 24.6358 22.2588 24.6636C22.2797 24.6705 22.3006 24.674 22.3214 24.674C22.3945 24.674 22.4641 24.6358 22.4884 24.5732C23.3269 22.6749 22.9024 20.9227 22.5128 19.7684C22.4849 19.685 22.3841 19.6398 22.2901 19.6641V19.6676ZM22.3006 17.22C22.1579 17.293 22.0292 17.3904 21.9213 17.5121C21.6535 17.8145 21.5734 18.2248 21.7091 18.6072C21.7578 18.7498 21.8239 18.9305 21.9074 19.1461C21.9318 19.2122 22.0014 19.2539 22.0779 19.2539C22.0953 19.2539 22.1162 19.2539 22.1336 19.2469C22.2275 19.2191 22.2797 19.1322 22.2484 19.0522C22.1684 18.8401 22.1022 18.6594 22.0535 18.5238C21.9527 18.2352 22.0118 17.9293 22.2101 17.7033C22.2866 17.6164 22.3806 17.5433 22.4815 17.4912C23.5182 16.9697 24.2592 16.1353 24.5654 15.1375C24.7324 14.5951 24.7602 14.0423 24.6524 13.4965C24.635 13.413 24.541 13.3574 24.4436 13.3713C24.3462 13.3852 24.2801 13.4652 24.2975 13.5486C24.3984 14.0493 24.3706 14.5603 24.2175 15.0575C23.9357 15.9754 23.2538 16.7437 22.3006 17.2235V17.22ZM13.3421 15.9719C13.3142 16.0553 13.3699 16.1388 13.4673 16.1631C13.4847 16.1666 13.4986 16.1701 13.516 16.1701C13.596 16.1701 13.6656 16.1249 13.69 16.0588C14.3823 13.9345 15.9618 12.1684 18.1327 11.0802C18.7659 10.7638 19.486 10.5969 20.2166 10.5969C20.3175 10.5969 20.3975 10.5274 20.3975 10.444C20.3975 10.3605 20.3175 10.291 20.2166 10.291C19.4234 10.291 18.6406 10.4718 17.9518 10.816C15.6974 11.9424 14.0622 13.7781 13.3421 15.9788V15.9719ZM13.8709 21.4129L13.8152 21.4268L13.7004 21.4581L13.8709 21.4094V21.4129ZM13.3455 17.7067C13.3734 17.4078 13.4186 17.1053 13.4847 16.8098C13.5021 16.7263 13.4395 16.6464 13.3421 16.629C13.2446 16.6151 13.1507 16.6672 13.1333 16.7541C13.0672 17.0601 13.0185 17.373 12.9907 17.6824C12.848 19.2226 13.3212 20.4638 13.7039 21.4616L13.8187 21.4303L14.0448 21.3677C13.6726 20.3977 13.2099 19.1878 13.349 17.7102L13.3455 17.7067ZM13.6308 22.3829C13.7143 22.3377 13.7422 22.2438 13.69 22.1708C13.6378 22.0978 13.5265 22.0769 13.443 22.1187C13.2794 22.2056 13.0951 22.296 12.8967 22.3898C12.7854 22.442 12.6776 22.5011 12.5697 22.5602C12.4862 22.6089 12.4653 22.7027 12.521 22.7758C12.5558 22.821 12.6115 22.8453 12.6706 22.8453C12.7054 22.8453 12.7402 22.8383 12.7715 22.8175C12.8689 22.7618 12.9698 22.7097 13.0707 22.661C13.2725 22.5637 13.4638 22.4698 13.6308 22.3829ZM21.563 19.2365C21.5108 19.0974 21.4308 18.8888 21.3647 18.6976C21.2012 18.2283 21.2951 17.7241 21.6117 17.3486C21.7509 17.1818 21.9213 17.0497 22.1196 16.9488C22.7841 16.6151 23.3095 16.1283 23.633 15.5338C23.6748 15.4573 23.6365 15.3635 23.546 15.3287C23.4556 15.2939 23.3477 15.3287 23.306 15.4017C23.0138 15.9371 22.5371 16.3787 21.9353 16.6811C21.6952 16.7993 21.4899 16.9627 21.3195 17.1644C20.9368 17.6164 20.8254 18.2213 21.0203 18.781C21.0899 18.9792 21.1699 19.1913 21.2221 19.3304C21.6604 20.4811 22.398 22.4072 21.3786 24.455C21.2882 24.6358 21.1873 24.8131 21.0794 24.9834C21.0307 25.0599 21.0655 25.1538 21.1525 25.192C21.1803 25.206 21.2081 25.2094 21.2395 25.2094C21.3021 25.2094 21.3647 25.1816 21.3995 25.1295C21.5108 24.9522 21.6187 24.7644 21.7126 24.5767C22.7841 22.4246 22.0222 20.4255 21.5665 19.233L21.563 19.2365ZM23.546 14.8107C23.5391 14.8385 23.5321 14.8663 23.5217 14.8941C23.4973 14.9776 23.553 15.061 23.6504 15.0819C23.6643 15.0819 23.6817 15.0853 23.6956 15.0853C23.7757 15.0853 23.8487 15.0401 23.8696 14.9706C23.88 14.9393 23.887 14.908 23.8974 14.8802C24.1166 14.0701 23.9705 13.2288 23.4834 12.5091C23.4347 12.4361 23.3234 12.4118 23.2364 12.4535C23.1494 12.4952 23.1216 12.5925 23.1703 12.6656C23.6121 13.3157 23.7444 14.0771 23.546 14.8107ZM18.3136 11.3409C17.6213 11.6886 16.9846 12.1128 16.4175 12.603C16.3479 12.6621 16.3479 12.7629 16.4175 12.822C16.4523 12.8533 16.4975 12.8672 16.5428 12.8672C16.588 12.8672 16.6367 12.8533 16.6715 12.822C17.2142 12.3492 17.83 11.9424 18.491 11.6086C19.0129 11.3479 19.6078 11.2088 20.2131 11.2088C21.1733 11.2088 22.0953 11.56 22.7459 12.1719C22.812 12.2344 22.9268 12.2414 22.9998 12.1823C23.0729 12.1232 23.0799 12.0258 23.0103 11.9633C22.2936 11.2853 21.2742 10.8994 20.2097 10.8994C19.5417 10.8994 18.8842 11.0524 18.3066 11.3409H18.3136ZM14.5597 22.595C14.6049 22.5672 14.6432 22.5393 14.6815 22.515C14.9355 22.3446 15.0433 22.0596 14.9529 21.7884C14.8763 21.5659 14.7824 21.319 14.7267 21.166C14.3753 20.2482 13.937 19.1044 14.0657 17.7519C14.2188 16.097 14.9459 14.5569 16.1601 13.3053C16.2227 13.2392 16.2123 13.1419 16.1357 13.0862C16.0592 13.0306 15.9444 13.041 15.8818 13.1071C14.6154 14.4109 13.8639 16.0101 13.7039 17.7276C13.5717 19.1426 14.0205 20.3177 14.3823 21.2669C14.438 21.4129 14.5319 21.6563 14.6049 21.8753C14.6537 22.0248 14.598 22.1778 14.4588 22.2716C14.424 22.296 14.3892 22.3203 14.3475 22.3446C14.0761 22.515 13.7074 22.7132 13.2481 22.9322C13.1507 22.9774 13.0533 23.0296 12.9628 23.0817C12.8794 23.1304 12.8585 23.2242 12.9141 23.2973C12.9489 23.3425 13.0046 23.3668 13.0637 23.3668C13.0985 23.3668 13.1333 23.3598 13.1646 23.339C13.2481 23.2903 13.3351 23.2451 13.4256 23.2034C13.8987 22.9774 14.2814 22.7723 14.5632 22.595H14.5597ZM21.3369 22.7062C21.236 22.6958 21.149 22.7584 21.1386 22.8418C21.0759 23.3146 20.9333 23.7736 20.7176 24.2116C20.5436 24.5628 20.3245 24.9 20.0705 25.2164C20.0148 25.2859 20.0322 25.3833 20.1157 25.4319C20.147 25.4493 20.1818 25.4598 20.2201 25.4598C20.2758 25.4598 20.3314 25.4354 20.3662 25.3937C20.6341 25.0634 20.8672 24.7053 21.0516 24.3333C21.2847 23.8674 21.4343 23.3772 21.5004 22.8766C21.5108 22.7931 21.4412 22.7167 21.3403 22.7062H21.3369ZM21.7543 16.4134C21.8413 16.3717 21.8692 16.2744 21.8204 16.2013C21.7717 16.1283 21.6604 16.104 21.5734 16.1457C20.7698 16.549 20.241 17.3035 20.161 18.1691C20.1331 18.4681 20.3384 19.0036 20.5367 19.5216C20.7837 20.1648 21.0899 20.9679 21.1594 21.8753C21.1664 21.9553 21.2464 22.0178 21.3403 22.0178C21.3438 22.0178 21.3473 22.0178 21.3543 22.0178C21.4517 22.0109 21.5282 21.9379 21.5213 21.8544C21.4482 20.9088 21.1316 20.0848 20.8811 19.4242C20.7106 18.9792 20.5019 18.4264 20.5228 18.1935C20.5924 17.4286 21.0551 16.7646 21.7578 16.4099L21.7543 16.4134ZM22.398 15.7633C22.4293 15.7841 22.4675 15.7946 22.5058 15.7946C22.5615 15.7946 22.6137 15.7737 22.6485 15.732C22.892 15.4573 23.0659 15.1479 23.1703 14.8107C23.3791 14.1327 23.2677 13.4235 22.8537 12.8185C22.3075 12.0119 21.2951 11.5148 20.2097 11.5148C19.6704 11.5148 19.1381 11.6399 18.6719 11.8729C17.3708 12.523 16.2888 13.4721 15.5373 14.616C15.4886 14.689 15.5199 14.7863 15.6069 14.8281C15.6939 14.8698 15.8017 14.8454 15.8504 14.769C16.5706 13.6738 17.6073 12.7629 18.8528 12.1406C19.2634 11.9355 19.733 11.8242 20.2097 11.8242C21.1664 11.8242 22.0605 12.2657 22.5441 12.975C22.9059 13.5104 23.0068 14.1362 22.8224 14.7342C22.732 15.0332 22.5754 15.3078 22.3632 15.5477C22.304 15.6173 22.318 15.7111 22.398 15.7633ZM15.753 22.3864C15.847 22.1951 15.7252 21.7953 15.4086 20.9714C15.0781 20.1057 14.6641 19.0279 14.7789 17.8006C14.8554 16.9627 15.0955 16.1527 15.4886 15.3913C15.5304 15.3148 15.4886 15.2209 15.3982 15.1862C15.3077 15.1514 15.1999 15.1862 15.1616 15.2661C14.7545 16.0588 14.5041 16.9036 14.424 17.7728C14.3023 19.0627 14.7267 20.1752 15.0711 21.0652C15.2033 21.4059 15.4747 22.1187 15.426 22.2612C15.2068 22.6993 13.9961 23.2764 13.5995 23.4676C13.5404 23.4954 13.4777 23.5267 13.4221 23.558C13.3386 23.6032 13.3142 23.7006 13.3699 23.7701C13.4047 23.8153 13.4638 23.8396 13.523 23.8396C13.5578 23.8396 13.5891 23.8327 13.6204 23.8153C13.6726 23.7875 13.7248 23.7597 13.7769 23.7353C14.5771 23.3564 15.5234 22.8557 15.76 22.3829L15.753 22.3864ZM20.1957 19.6189C19.9766 19.0453 19.7713 18.5029 19.8026 18.1448C19.8374 17.7763 19.9453 17.4217 20.1192 17.0949C20.161 17.0184 20.1192 16.9245 20.0322 16.8897C19.9418 16.855 19.8339 16.8897 19.7922 16.9662C19.5974 17.3278 19.4791 17.7137 19.4408 18.1205C19.4025 18.5412 19.6182 19.1113 19.8513 19.7163C20.2758 20.8288 20.8568 22.3516 20.0531 23.9683C19.7783 24.521 19.399 25.0113 18.8911 25.4771C18.8215 25.5397 18.825 25.6371 18.8981 25.6962C18.9329 25.724 18.9781 25.7379 19.0198 25.7379C19.0685 25.7379 19.1172 25.7205 19.152 25.6892C19.6878 25.199 20.0914 24.674 20.3836 24.0899C21.2429 22.3655 20.6376 20.7801 20.1923 19.6189H20.1957ZM22.478 14.6542C22.638 14.1362 22.551 13.5938 22.2379 13.128C21.8204 12.5126 21.0446 12.1301 20.2166 12.1301C19.8026 12.1301 19.3956 12.224 19.0407 12.4048C18.9537 12.4465 18.9259 12.5439 18.9746 12.6169C19.0233 12.6899 19.1346 12.7142 19.2216 12.6725C19.5243 12.5195 19.8687 12.4396 20.2166 12.4396C20.9194 12.4396 21.5734 12.7629 21.9283 13.2844C22.1962 13.6773 22.2658 14.1362 22.1336 14.5743C21.9979 15.0123 21.6743 15.3808 21.2151 15.6103C20.8915 15.7737 20.5993 15.9823 20.3488 16.2326C20.2827 16.2987 20.2932 16.396 20.3662 16.4517C20.401 16.476 20.4428 16.4899 20.4845 16.4899C20.5367 16.4899 20.5854 16.4725 20.6202 16.4378C20.8463 16.2153 21.1072 16.0275 21.396 15.8815C21.9353 15.6103 22.3214 15.1757 22.4815 14.6577L22.478 14.6542ZM18.3171 13.2044C18.3936 13.1523 18.4075 13.0549 18.3449 12.9854C18.2823 12.9194 18.171 12.9089 18.0909 12.9611C16.3932 14.1327 15.3181 15.9058 15.1407 17.8215C15.1233 18.0231 15.1164 18.2352 15.1268 18.4473C15.1303 18.5307 15.2103 18.5968 15.3077 18.5968H15.3147C15.4156 18.5933 15.4921 18.5203 15.4851 18.4369C15.4747 18.2387 15.4782 18.0405 15.4956 17.8493C15.6661 16.0171 16.6924 14.3239 18.3136 13.2044H18.3171ZM16.414 22.6297C16.6332 22.1917 16.3932 21.5693 16.0905 20.7801C15.9131 20.3143 15.7113 19.7858 15.5895 19.2156C15.5721 19.1322 15.4782 19.0766 15.3808 19.0905C15.2834 19.1044 15.2173 19.1878 15.2347 19.2713C15.3599 19.8623 15.5652 20.4012 15.7495 20.8775C16.0279 21.6041 16.247 22.1812 16.0835 22.5081C15.8052 23.0678 14.845 23.5823 13.9439 24.01C13.857 24.0517 13.8256 24.1456 13.8744 24.2186C13.9057 24.2707 13.9683 24.2985 14.0309 24.2985C14.0587 24.2985 14.0901 24.2916 14.1179 24.2777C15.0711 23.8222 16.0905 23.2694 16.414 22.6263V22.6297ZM19.5104 19.8136C19.3573 19.4173 19.2147 19.0418 19.1381 18.6941C19.1207 18.6107 19.0233 18.5551 18.9259 18.5724C18.8285 18.5898 18.7659 18.6698 18.7833 18.7532C18.8668 19.1183 19.0129 19.5042 19.166 19.911C19.5765 20.9853 20.0879 22.3238 19.3886 23.7249C19.072 24.3611 18.5745 24.9278 17.8752 25.4528C17.7987 25.5084 17.7917 25.6058 17.8578 25.6718C17.8926 25.7066 17.9448 25.724 17.9935 25.724C18.0353 25.724 18.077 25.7101 18.1118 25.6857C18.8528 25.1295 19.3782 24.528 19.7191 23.8466C20.4706 22.3377 19.9383 20.9366 19.5069 19.8136H19.5104ZM18.905 18.2387C18.999 18.2387 19.0755 18.1761 19.0859 18.0961C19.1938 16.928 19.9209 15.8989 21.0307 15.3426C21.403 15.1549 21.6708 14.8559 21.7822 14.4943C21.8935 14.1362 21.8344 13.7607 21.6152 13.4374C21.3264 13.0097 20.7907 12.7455 20.2166 12.7455C19.9313 12.7455 19.6495 12.8116 19.4025 12.9333C19.0859 13.0932 18.7798 13.274 18.491 13.4756C18.4145 13.5313 18.404 13.6286 18.4667 13.6947C18.5293 13.7607 18.6441 13.7711 18.7206 13.7155C18.992 13.5243 19.2808 13.3505 19.5834 13.201C19.7748 13.1036 19.994 13.0549 20.2166 13.0549C20.6619 13.0549 21.0794 13.2601 21.3056 13.5938C21.476 13.8442 21.5213 14.1362 21.4343 14.4143C21.3473 14.6925 21.142 14.9289 20.8498 15.0749C19.6391 15.6798 18.8459 16.7993 18.7276 18.0683C18.7206 18.1518 18.7937 18.2283 18.8911 18.2352C18.8946 18.2352 18.9015 18.2352 18.905 18.2352V18.2387ZM16.4975 23.1165C16.4384 23.186 16.4558 23.2833 16.5358 23.332C16.5671 23.3529 16.6054 23.3633 16.6437 23.3633C16.6993 23.3633 16.755 23.3425 16.7898 23.3007C16.9081 23.1617 17.0055 23.0191 17.0751 22.8766C17.3986 22.2264 17.1238 21.5033 16.7759 20.5889C16.4697 19.7893 16.1218 18.8819 16.2157 17.9014C16.3375 16.5768 16.9602 15.3148 17.9657 14.3448C18.0318 14.2822 18.0248 14.1849 17.9518 14.1258C17.8787 14.0701 17.7639 14.0736 17.6978 14.1397C16.6402 15.1583 15.9861 16.4864 15.8574 17.8771C15.76 18.9201 16.1183 19.8588 16.4349 20.6863C16.7619 21.5381 17.0159 22.2091 16.748 22.7549C16.6889 22.8766 16.6054 22.9983 16.501 23.1199L16.4975 23.1165ZM16.3688 23.492C16.2992 23.4294 16.1879 23.4294 16.1148 23.485C15.7495 23.784 15.2694 24.0726 14.5597 24.4202C14.4727 24.4619 14.4449 24.5558 14.4936 24.6323C14.5284 24.681 14.5876 24.7088 14.6502 24.7088C14.6815 24.7088 14.7128 24.7018 14.7406 24.6879C15.4782 24.3264 15.9792 24.0239 16.3653 23.7075C16.4384 23.6484 16.4419 23.5511 16.3723 23.4885L16.3688 23.492ZM19.0581 23.6032C19.58 22.5602 19.3573 21.545 19.1033 20.7767C19.0755 20.6932 18.9781 20.648 18.8807 20.6689C18.7833 20.6932 18.7276 20.7767 18.7554 20.8601C19.0059 21.625 19.1973 22.5324 18.7241 23.4815C18.3867 24.156 17.7917 24.7609 16.9081 25.3242C16.828 25.3763 16.8107 25.4737 16.8698 25.5397C16.9046 25.5814 16.9603 25.6023 17.0159 25.6023C17.0542 25.6023 17.0925 25.5919 17.1238 25.571C18.0631 24.973 18.6928 24.3298 19.0581 23.5997V23.6032ZM18.825 20.0048C18.5606 19.3095 18.3101 18.6524 18.3658 18.0475C18.4945 16.6777 19.3538 15.4678 20.6654 14.8107C20.8742 14.7064 21.0203 14.5395 21.0829 14.3413C21.1455 14.1431 21.1107 13.9345 20.989 13.7538C20.7385 13.3852 20.1853 13.2601 19.7574 13.4756C18.2823 14.2127 17.1899 15.4782 16.7585 16.9454C16.7341 17.0288 16.7933 17.1122 16.8872 17.1331C16.9846 17.154 17.082 17.1053 17.1064 17.0218C17.5169 15.6346 18.5467 14.4387 19.9383 13.7433C20.1957 13.6147 20.5263 13.6912 20.6758 13.9102C20.7489 14.018 20.7698 14.1431 20.7315 14.2614C20.6932 14.3796 20.6063 14.4804 20.481 14.543C19.0651 15.2522 18.1396 16.5525 18.004 18.0231C17.9413 18.6941 18.2023 19.379 18.4806 20.1057L18.8215 20.0083L18.825 20.0048ZM17.7569 22.3168C17.7569 22.3168 17.7604 22.3168 17.7639 22.3168C17.8648 22.3168 17.9413 22.2438 17.9379 22.1569C17.917 21.5972 17.6943 21.0096 17.4578 20.3907C17.1586 19.6085 16.8524 18.8019 16.9289 17.9466C16.9359 17.8632 16.8628 17.7867 16.7654 17.7798C16.668 17.7728 16.581 17.8354 16.5706 17.9223C16.4836 18.8401 16.8037 19.678 17.1133 20.4881C17.3429 21.0861 17.5586 21.6493 17.576 22.1639C17.576 22.2473 17.6595 22.3134 17.7569 22.3134V22.3168ZM17.7361 23.1165C17.7743 23.0365 17.7361 22.9461 17.6421 22.9148C17.5517 22.8801 17.4438 22.9148 17.4056 22.9948C17.0925 23.6275 16.428 24.1803 15.252 24.7888C15.1686 24.834 15.1407 24.9278 15.1894 25.0008C15.2242 25.0495 15.2834 25.0738 15.3425 25.0738C15.3738 25.0738 15.4051 25.0669 15.4364 25.053C16.2749 24.6184 17.2908 24.0065 17.7326 23.1165H17.7361ZM17.4682 18.1413C17.5621 18.1413 17.6387 18.0788 17.6456 17.9988C17.7917 16.4273 18.7833 15.0367 20.3001 14.2753C20.3871 14.2335 20.4149 14.1362 20.3662 14.0632C20.3175 13.9902 20.2062 13.9658 20.1192 14.0076C18.5015 14.8176 17.4404 16.2987 17.2873 17.971C17.2803 18.0544 17.3534 18.1309 17.4508 18.1379C17.4543 18.1379 17.4612 18.1379 17.4647 18.1379L17.4682 18.1413ZM18.3971 23.3598C18.9363 22.2786 18.5328 21.2217 18.1396 20.1995C17.9761 19.7754 17.8091 19.3373 17.7152 18.9062C17.6978 18.8228 17.6039 18.7671 17.5065 18.7845C17.409 18.8019 17.3429 18.8819 17.3638 18.9653C17.4612 19.4138 17.6352 19.8658 17.7987 20.2969C18.1849 21.3086 18.5502 22.2647 18.0666 23.2382C17.7291 23.9126 17.0855 24.5037 16.0348 25.0982C15.9513 25.1434 15.927 25.2407 15.9826 25.3137C16.0174 25.3589 16.0731 25.3833 16.1322 25.3833C16.167 25.3833 16.2018 25.3763 16.2297 25.3589C17.3395 24.7331 18.0283 24.0969 18.3936 23.3633L18.3971 23.3598Z" fill="url(#paint0_linear_270_1378)"/>
<defs>
<linearGradient id="paint0_linear_270_1378" x1="21.8274" y1="21.2634" x2="245.717" y2="23.9789" gradientUnits="userSpaceOnUse">
<stop stop-color="#025FC9"/>
<stop offset="1" stop-color="#002D94"/>
</linearGradient>
</defs>
</svg>
