<svg width="264" height="221" viewBox="0 0 264 221" fill="none" xmlns="http://www.w3.org/2000/svg">
<g clip-path="url(#clip0_294_795)">
<path d="M158.502 208.043C115.747 184.667 110.078 184.674 73.98 203.207C34.8777 223.291 6.82728 208.969 2.50232 181.574C-9.80064 103.439 24.6368 15.4789 73.5629 1.87411C101.721 -5.96173 135.17 10.7357 135.472 52.7068C135.641 75.9213 151.211 99.8992 175.246 109.177C200.114 118.779 237.054 112.748 247.225 156.47C257.304 199.799 198.477 229.9 158.502 208.051V208.043Z" fill="#E6EFFA"/>
<path d="M264 213.758C264 217.761 206.293 221 135.109 221C63.9244 221 6.2171 217.761 6.2171 213.758C6.2171 209.755 63.9244 206.516 135.109 206.516C206.293 206.516 264 209.755 264 213.758Z" fill="#B1CDEE"/>
<path d="M124.157 38.4774L124.265 33.7496L118.612 32.346C118.187 32.238 117.863 31.9218 117.708 31.5207C117.623 31.2971 117.531 31.0734 117.43 30.8498C117.253 30.4487 117.276 29.986 117.523 29.6235L120.759 24.8495L117.515 21.402L112.549 24.325C112.109 24.5795 111.584 24.5873 111.12 24.3713C110.812 24.2325 110.503 24.1014 110.186 23.978C109.699 23.7929 109.321 23.3995 109.205 22.8982L107.931 17.2604H103.197L101.922 22.9059C101.806 23.4381 101.443 23.8854 100.934 24.0859C100.725 24.1708 100.517 24.2556 100.308 24.3482C99.8215 24.5718 99.25 24.5256 98.7866 24.2479L93.9365 21.3943L90.6928 24.8418L93.6739 29.2456C94.0369 29.7854 94.1064 30.4719 93.8515 31.0734C93.8284 31.1274 93.8052 31.1814 93.782 31.2354C93.5426 31.8292 93.0097 32.2688 92.3764 32.3922L87.2174 33.4334L87.1093 38.1612L92.6236 39.534C93.1333 39.6651 93.5349 40.043 93.728 40.5366C93.728 40.5443 93.728 40.552 93.7357 40.5597C93.9365 41.061 93.8979 41.624 93.5967 42.0714L90.546 46.5677L93.7898 50.0152L98.3696 47.3235C98.8098 47.0613 99.3504 47.069 99.8061 47.3081C100.076 47.4469 100.347 47.578 100.625 47.6937C101.065 47.8788 101.397 48.249 101.497 48.7118L102.687 53.9948H107.421L108.502 49.1899C108.618 48.6886 109.004 48.303 109.499 48.1488C109.923 48.0177 110.348 47.8634 110.758 47.686C111.182 47.5009 111.661 47.5163 112.055 47.7477L116.751 50.5165L119.994 47.069L117.268 43.0431C116.967 42.5958 116.951 42.0251 117.191 41.5392C117.353 41.2076 117.508 40.8682 117.639 40.5212C117.824 40.043 118.218 39.6728 118.728 39.5725L124.142 38.4851L124.157 38.4774ZM107.359 44.308C101.358 45.4417 96.1917 40.2898 97.327 34.2895C97.9603 30.9423 100.663 28.243 104.023 27.6028C110.024 26.4691 115.191 31.621 114.055 37.6213C113.422 40.9685 110.711 43.6678 107.359 44.308Z" fill="#B1CDEE"/>
<path d="M230.258 175.011L230.404 168.424L222.527 166.465C221.94 166.319 221.484 165.879 221.268 165.316C221.144 165 221.021 164.691 220.882 164.383C220.635 163.828 220.666 163.188 221.013 162.679L225.516 156.038L220.998 151.241L214.085 155.305C213.475 155.66 212.742 155.668 212.101 155.367C211.676 155.167 211.243 154.989 210.795 154.82C210.116 154.565 209.591 154.017 209.436 153.316L207.667 145.464H201.072L199.296 153.323C199.126 154.064 198.624 154.688 197.921 154.966C197.627 155.082 197.342 155.205 197.056 155.336C196.376 155.645 195.581 155.583 194.94 155.197L188.19 151.226L183.672 156.023L187.827 162.146C188.336 162.894 188.429 163.851 188.082 164.684C188.051 164.761 188.02 164.83 187.989 164.907C187.649 165.74 186.915 166.342 186.035 166.519L178.852 167.969L178.706 174.556L186.382 176.468C187.093 176.646 187.649 177.178 187.919 177.864C187.919 177.872 187.927 177.887 187.935 177.895C188.213 178.589 188.159 179.376 187.742 180.001L183.494 186.263L188.012 191.06L194.384 187.312C195.002 186.95 195.751 186.965 196.384 187.289C196.755 187.482 197.141 187.659 197.527 187.829C198.137 188.091 198.6 188.6 198.747 189.248L200.408 196.606H207.003L208.517 189.911C208.679 189.209 209.212 188.677 209.899 188.461C210.494 188.276 211.081 188.06 211.645 187.813C212.232 187.559 212.904 187.574 213.452 187.898L219.994 191.747L224.512 186.95L220.712 181.343C220.287 180.718 220.272 179.924 220.604 179.253C220.828 178.79 221.044 178.319 221.229 177.833C221.492 177.162 222.04 176.653 222.743 176.515L230.273 174.995L230.258 175.011ZM206.872 183.124C198.516 184.705 191.325 177.525 192.909 169.18C193.797 164.514 197.558 160.758 202.23 159.871C210.587 158.29 217.777 165.47 216.194 173.815C215.306 178.481 211.544 182.237 206.872 183.124Z" fill="#B1CDEE"/>
<path d="M171.214 215.301H86.5223C80.7145 215.301 76.0034 210.596 76.0034 204.796L76.0034 50.4317C76.0034 44.6319 80.7145 39.9273 86.5223 39.9273H173.778C178.165 39.9273 181.733 43.4828 181.733 47.8712L181.733 204.796C181.733 210.596 177.022 215.301 171.214 215.301Z" fill="#262626"/>
<path d="M167.569 215.301H77.9496C73.5011 215.301 69.8944 211.699 69.8944 207.256L69.8944 50.532C69.8944 44.6782 74.6518 39.9273 80.5137 39.9273H165.005C170.867 39.9273 175.624 44.6782 175.624 50.532L175.624 207.256C175.624 211.699 172.017 215.301 167.569 215.301Z" fill="#313131"/>
<path d="M153.613 199.336H91.9053C84.9005 199.336 79.2085 193.652 79.2085 186.657L79.2085 63.1263C79.2085 56.1311 84.9005 50.4471 91.9053 50.4471H153.613C160.618 50.4471 166.31 56.1311 166.31 63.1263L166.31 186.657C166.31 193.652 160.618 199.336 153.613 199.336Z" fill="#262626"/>
<path d="M96.825 199.336H153.613C160.625 199.336 166.31 193.659 166.31 186.657L166.31 63.1186C166.31 56.1161 160.625 50.4394 153.613 50.4394H96.825C89.8127 50.4394 84.1282 56.1161 84.1282 63.1186L84.1282 186.657C84.1282 193.659 89.8127 199.336 96.825 199.336Z" fill="#E6EFFA"/>
<path d="M149.512 46.5369L94.2454 46.5369C93.6044 46.5369 93.0869 46.0201 93.0869 45.38V44.3928C93.0869 43.7527 93.6044 43.2359 94.2454 43.2359L149.512 43.2359C150.153 43.2359 150.671 43.7527 150.671 44.3928V45.38C150.671 46.0201 150.153 46.5369 149.512 46.5369Z" fill="#262626"/>
<path d="M128.366 210.419H117.16C115.685 210.419 114.48 209.223 114.48 207.742V205.459C114.48 203.986 115.677 202.783 117.16 202.783H128.366C129.841 202.783 131.046 203.979 131.046 205.459V207.742C131.046 209.215 129.849 210.419 128.366 210.419Z" fill="#262626"/>
<path d="M183.139 24.2248C182.22 24.2248 181.362 24.5641 180.636 25.1426C179.223 22.1347 176.69 20.1218 173.786 20.1218C172.836 20.1218 171.933 20.3454 171.083 20.7388C169.554 14.3606 164.997 9.7254 159.614 9.7254C154.231 9.7254 149.79 14.2526 148.207 20.5151C147.52 20.2683 146.794 20.1218 146.052 20.1218C142.785 20.1218 139.982 22.6669 138.723 26.3226C137.958 25.7673 137.086 25.4511 136.159 25.4511C133.711 25.4511 131.656 27.626 131.046 30.5798H188.004C188.004 27.0707 185.826 24.2248 183.146 24.2248H183.139Z" fill="#B1CDEE"/>
<path d="M100.548 152.999H147.983C150.261 152.999 152.115 154.85 152.115 157.126V165.887C152.115 168.162 150.261 170.013 147.983 170.013H100.548C98.2692 170.013 96.4156 168.162 96.4156 165.887V157.126C96.4156 154.85 98.2692 152.999 100.548 152.999Z" fill="#5594DB"/>
<path d="M126.296 134.089H121.253C114.743 134.089 109.452 128.805 109.452 122.304V94.1766C109.452 87.3203 115.036 81.7365 121.91 81.7365H125.655C132.521 81.7365 138.113 87.3125 138.113 94.1766V122.304C138.113 128.805 132.823 134.089 126.312 134.089H126.296ZM121.902 83.6954C116.11 83.6954 111.399 88.4 111.399 94.1843V122.312C111.399 127.733 115.816 132.145 121.246 132.145H126.289C131.718 132.145 136.136 127.733 136.136 122.312V94.1843C136.136 88.4 131.425 83.6954 125.632 83.6954H121.887H121.902Z" fill="#5594DB"/>
<path d="M139.48 129.052H126.018V135.076H139.48V129.052Z" fill="#E6EFFA"/>
<path d="M131.571 137.844H108C105.498 137.844 103.459 135.808 103.459 133.31V93.5905C103.459 84.5515 110.819 77.2015 119.871 77.2015H126.744C135.796 77.2015 143.156 84.5515 143.156 93.5905V126.268C143.156 132.654 137.958 137.844 131.564 137.844H131.571ZM119.879 79.1528C111.901 79.1528 105.421 85.6312 105.421 93.5905V133.31C105.421 134.736 106.579 135.893 108.008 135.893H131.579C136.893 135.893 141.218 131.574 141.218 126.268V93.5905C141.218 85.6312 134.73 79.1528 126.76 79.1528H119.886H119.879Z" fill="#5594DB"/>
<path d="M113.129 123.885H100.409V142.387H113.129V123.885Z" fill="#E6EFFA"/>
<path d="M108.278 104.172H102.046V113.782H108.278V104.172Z" fill="#E6EFFA"/>
<path d="M124.126 123.931H123.022C121.439 123.931 120.149 122.643 120.149 121.062V96.8837C120.149 95.3026 121.439 94.0146 123.022 94.0146H124.126C125.71 94.0146 126.999 95.3026 126.999 96.8837V121.062C126.999 122.643 125.71 123.931 124.126 123.931ZM123.022 95.9736C122.52 95.9736 122.103 96.3824 122.103 96.8914V121.07C122.103 121.571 122.512 121.988 123.022 121.988H124.126C124.628 121.988 125.045 121.579 125.045 121.07V96.8914C125.045 96.3901 124.636 95.9736 124.126 95.9736H123.022Z" fill="#5594DB"/>
<path d="M126.219 128.32H120.033C117.338 128.32 115.152 126.129 115.152 123.445V94.1689C115.152 90.5055 118.141 87.5208 121.809 87.5208H124.451C128.119 87.5208 131.108 90.5055 131.108 94.1689V123.445C131.108 126.137 128.915 128.32 126.227 128.32H126.219ZM121.809 89.4643C119.214 89.4643 117.106 91.5698 117.106 94.1612V123.438C117.106 125.05 118.419 126.361 120.033 126.361H126.219C127.833 126.361 129.146 125.05 129.146 123.438V94.1612C129.146 91.5698 127.038 89.4643 124.443 89.4643H121.802H121.809Z" fill="#5594DB"/>
<path d="M134.027 98.7269H128.088V117.26H134.027V98.7269Z" fill="#E6EFFA"/>
<path d="M112.379 96.9454H107.089V113.851H112.379V96.9454Z" fill="#E6EFFA"/>
<path d="M139.48 122.952H132.807V131.165H139.48V122.952Z" fill="#E6EFFA"/>
<path d="M131.139 135.068H119.5V138.662H131.139V135.068Z" fill="#E6EFFA"/>
<path d="M133.178 142.063H114.132C105.606 142.063 98.6708 135.137 98.6708 126.623V92.4799C98.6708 81.5437 107.583 72.6435 118.527 72.6435H128.783C139.735 72.6435 148.647 81.5437 148.647 92.4799V126.623C148.647 135.137 141.712 142.063 133.178 142.063ZM118.527 74.5947C108.657 74.5947 100.617 82.6157 100.617 92.4799V126.623C100.617 134.065 106.68 140.12 114.125 140.12H133.17C140.623 140.12 146.686 134.065 146.686 126.623V92.4799C146.686 82.6157 138.653 74.5947 128.776 74.5947H118.519H118.527Z" fill="#5594DB"/>
<path d="M150.926 93.4517H144.901V119.134H150.926V93.4517Z" fill="#E6EFFA"/>
<path d="M102.046 85.1608H94.593V97.84H102.046V85.1608Z" fill="#E6EFFA"/>
<path d="M108.95 53.0693C108.95 66.7589 97.8367 77.8571 84.1281 77.8571C70.4196 77.8571 59.306 66.7589 59.306 53.0693C59.306 39.3797 70.4196 28.2815 84.1281 28.2815C97.8367 28.2815 108.95 39.3797 108.95 53.0693Z" fill="#357FD4"/>
<path d="M69.5005 48.9277L81.8034 66.7975L98.3232 39.025L81.9888 54.8972L69.5005 48.9277Z" fill="white"/>
<path d="M109.885 161.537L107.815 161.815L109.29 163.403L107.915 164.344L106.881 162.432L105.846 164.344L104.463 163.403L105.946 161.815L103.876 161.537L104.409 160.018L106.309 160.835L105.985 158.676H107.753L107.429 160.835L109.313 160.018L109.862 161.537H109.885Z" fill="white"/>
<path d="M118.573 161.537L116.504 161.815L117.979 163.403L116.604 164.344L115.569 162.432L114.534 164.344L113.152 163.403L114.634 161.815L112.565 161.537L113.098 160.018L114.997 160.835L114.673 158.676H116.442L116.117 160.835L118.002 160.018L118.55 161.537H118.573Z" fill="white"/>
<path d="M127.262 161.537L125.192 161.815L126.667 163.403L125.292 164.344L124.258 162.432L123.223 164.344L121.84 163.403L123.323 161.815L121.253 161.537L121.786 160.018L123.686 160.835L123.362 158.676H125.13L124.806 160.835L126.69 160.018L127.239 161.537H127.262Z" fill="white"/>
<path d="M135.943 161.537L133.873 161.815L135.348 163.403L133.973 164.344L132.938 162.432L131.903 164.344L130.521 163.403L132.004 161.815L129.934 161.537L130.467 160.018L132.367 160.835L132.042 158.676H133.811L133.487 160.835L135.371 160.018L135.92 161.537H135.943Z" fill="white"/>
<path d="M144.631 161.537L142.561 161.815L144.037 163.403L142.662 164.344L141.627 162.432L140.592 164.344L139.21 163.403L140.692 161.815L138.623 161.537L139.156 160.018L141.055 160.835L140.731 158.676H142.5L142.175 160.835L144.06 160.018L144.608 161.537H144.631Z" fill="white"/>
</g>
<defs>
<clipPath id="clip0_294_795">
<rect width="264" height="221" fill="white"/>
</clipPath>
</defs>
</svg>
