<svg width="273" height="172" viewBox="0 0 273 172" fill="none" xmlns="http://www.w3.org/2000/svg">
<g clip-path="url(#clip0_329_1028)">
<path d="M273 70.6416H272.539V57.9798C272.539 53.9342 269.267 50.6519 265.228 50.6519H238.469C234.43 50.6519 231.158 53.9317 231.158 57.9798V127.438C231.158 131.486 234.43 134.766 238.469 134.766H265.228C269.267 134.766 272.539 131.486 272.539 127.438V79.653H273V70.6416Z" fill="#3F3D56"/>
<path d="M270.983 58.4125V127.769C270.983 130.792 268.54 133.242 265.523 133.242H238.635C235.621 133.242 233.177 130.792 233.177 127.771V58.4125C233.177 55.3913 235.621 52.942 238.635 52.942H241.897C241.356 54.2723 241.996 55.7892 243.324 56.3312C243.634 56.4581 243.964 56.5227 244.298 56.5227H259.629C261.06 56.5252 262.221 55.3664 262.224 53.9317C262.224 53.5935 262.159 53.2553 262.03 52.942H265.523C268.537 52.942 270.983 55.3913 270.983 58.4125Z" fill="white"/>
<path d="M265.893 88.4506H234.636V96.905H265.893V88.4506Z" fill="#025FC9"/>
<path d="M267.133 95.413H236.869C236.457 95.413 236.125 95.0798 236.125 94.667V87.2072C236.125 86.7944 236.457 86.4612 236.869 86.4612H267.133C267.545 86.4612 267.877 86.7944 267.877 87.2072V94.667C267.877 95.0798 267.545 95.413 267.133 95.413ZM236.869 86.9586C236.732 86.9586 236.621 87.0705 236.621 87.2072V94.667C236.621 94.8038 236.732 94.9157 236.869 94.9157H267.133C267.27 94.9157 267.381 94.8038 267.381 94.667V87.2072C267.381 87.0705 267.27 86.9586 267.133 86.9586H236.869Z" fill="#3F3D56"/>
<path d="M242.078 93.175H238.109V93.6724H242.078V93.175Z" fill="#3F3D56"/>
<path d="M247.536 93.175H243.567V93.6724H247.536V93.175Z" fill="#3F3D56"/>
<path d="M252.993 93.175H249.024V93.6724H252.993V93.175Z" fill="#3F3D56"/>
<path d="M258.451 93.175H254.482V93.6724H258.451V93.175Z" fill="#3F3D56"/>
<path d="M263.908 93.175H259.939V93.6724H263.908V93.175Z" fill="#3F3D56"/>
<path opacity="0.1" d="M270.983 120.717V127.769C270.983 130.792 268.54 133.241 265.523 133.241H238.635C235.621 133.241 233.177 130.792 233.177 127.771V95.3284L270.983 120.717Z" fill="#727272"/>
<path d="M142.106 114.311H24.7697V172H142.106V114.311Z" fill="white"/>
<path opacity="0.1" d="M112.276 172H25.2658C24.9929 172 24.7697 171.776 24.7697 171.503V114.808C24.7697 114.535 24.9929 114.311 25.2658 114.311H26.3672L112.276 172Z" fill="#727272"/>
<path d="M260.931 122.02H79.0968V122.517H260.931V122.02Z" fill="#3F3D56"/>
<path d="M136.584 1.07421H84.6164V0H61.0523V1.07421H8.87097C6.92859 1.07421 5.35583 2.65071 5.35583 4.59771V75.9281C5.35583 77.8751 6.92859 79.4516 8.87097 79.4516H136.584C138.527 79.4516 140.1 77.8751 140.1 75.9281V4.59771C140.1 2.65071 138.527 1.07421 136.584 1.07421Z" fill="#3F3D56"/>
<path d="M135.386 7.30066H10.0691V78.1635H135.386V7.30066Z" fill="white"/>
<path d="M72.6197 5.36853C73.3294 5.36853 73.9047 4.79185 73.9047 4.08047C73.9047 3.3691 73.3294 2.79242 72.6197 2.79242C71.91 2.79242 71.3347 3.3691 71.3347 4.08047C71.3347 4.79185 71.91 5.36853 72.6197 5.36853Z" fill="#025FC9"/>
<path d="M47.344 33.7455H44.3671C43.9553 33.7455 43.6229 33.4123 43.6229 32.9995V30.0156C43.6229 29.6029 43.9553 29.2697 44.3671 29.2697H47.344C47.7558 29.2697 48.0882 29.6029 48.0882 30.0156V32.9995C48.0882 33.4123 47.7558 33.7455 47.344 33.7455ZM44.3671 29.767C44.2307 29.767 44.1191 29.8789 44.1191 30.0156V32.9995C44.1191 33.1363 44.2307 33.2482 44.3671 33.2482H47.344C47.4804 33.2482 47.592 33.1363 47.592 32.9995V30.0156C47.592 29.8789 47.4804 29.767 47.344 29.767H44.3671Z" fill="#3F3D56"/>
<path d="M100.431 33.2482H43.871V33.7455H100.431V33.2482Z" fill="#3F3D56"/>
<path d="M98.9423 46.9244H85.7947V50.903H98.9423V46.9244Z" fill="#025FC9"/>
<path d="M99.9346 49.9084H87.7792C87.3674 49.9084 87.035 49.5752 87.035 49.1624V46.1785C87.035 45.7657 87.3674 45.4325 87.7792 45.4325H99.9346C100.346 45.4325 100.679 45.7657 100.679 46.1785V49.1624C100.679 49.5752 100.346 49.9084 99.9346 49.9084ZM87.7792 45.9298C87.6428 45.9298 87.5312 46.0417 87.5312 46.1785V49.1624C87.5312 49.2991 87.6428 49.411 87.7792 49.411H99.9346C100.071 49.411 100.183 49.2991 100.183 49.1624V46.1785C100.183 46.0417 100.071 45.9298 99.9346 45.9298H87.7792Z" fill="#3F3D56"/>
<path d="M199.41 51.4003H174.603V68.8065H199.41V51.4003Z" fill="#025FC9"/>
<path d="M201.891 67.4389H178.076C177.528 67.4389 177.084 66.9938 177.084 66.4442V50.0327C177.084 49.4832 177.528 49.0381 178.076 49.0381H201.891C202.439 49.0381 202.883 49.4832 202.883 50.0327V66.4442C202.883 66.9938 202.439 67.4389 201.891 67.4389ZM178.076 50.0327V66.4442H201.891V50.0327H178.076Z" fill="#3F3D56"/>
<path d="M199.162 49.4111H198.17C198.17 44.878 194.506 41.2053 189.984 41.2053C185.461 41.2053 181.797 44.878 181.797 49.4111H180.805C180.805 44.331 184.916 40.2107 189.984 40.2107C195.052 40.2107 199.162 44.331 199.162 49.4111Z" fill="#3F3D56"/>
<path d="M192.464 56.2492C192.464 54.8766 191.356 53.7601 189.986 53.7601C188.617 53.7601 187.503 54.8716 187.503 56.2442C187.503 57.1021 187.945 57.9028 188.671 58.3578V61.026C188.671 61.752 189.259 62.3414 189.984 62.3414C190.708 62.3414 191.296 61.752 191.296 61.026V58.3578C192.023 57.9053 192.464 57.1071 192.464 56.2517V56.2492Z" fill="white"/>
<path d="M74.5076 139.923H70.5385V140.42H74.5076V139.923Z" fill="#3F3D56"/>
<path d="M79.9651 139.923H75.996V140.42H79.9651V139.923Z" fill="#3F3D56"/>
<path d="M85.4226 139.923H81.4535V140.42H85.4226V139.923Z" fill="#3F3D56"/>
<path d="M90.8801 139.923H86.911V140.42H90.8801V139.923Z" fill="#3F3D56"/>
<path d="M96.3376 139.923H92.3685V140.42H96.3376V139.923Z" fill="#3F3D56"/>
<path d="M147.316 167.773H30.9714C30.4232 167.773 29.9791 167.328 29.9791 166.778V110.084C29.9791 109.534 30.4232 109.089 30.9714 109.089H147.316C147.864 109.089 148.308 109.534 148.308 110.084V166.778C148.308 167.328 147.864 167.773 147.316 167.773ZM30.9714 110.084V166.778H147.316V110.084H30.9714Z" fill="#3F3D56"/>
<path d="M36.1809 118.538C37.0029 118.538 37.6693 117.87 37.6693 117.046C37.6693 116.222 37.0029 115.554 36.1809 115.554C35.3589 115.554 34.6925 116.222 34.6925 117.046C34.6925 117.87 35.3589 118.538 36.1809 118.538Z" fill="#3F3D56"/>
<path d="M41.3903 118.538C42.2123 118.538 42.8787 117.87 42.8787 117.046C42.8787 116.222 42.2123 115.554 41.3903 115.554C40.5682 115.554 39.9019 116.222 39.9019 117.046C39.9019 117.87 40.5682 118.538 41.3903 118.538Z" fill="#3F3D56"/>
<path d="M46.5997 118.538C47.4218 118.538 48.0882 117.87 48.0882 117.046C48.0882 116.222 47.4218 115.554 46.5997 115.554C45.7777 115.554 45.1113 116.222 45.1113 117.046C45.1113 117.87 45.7777 118.538 46.5997 118.538Z" fill="#3F3D56"/>
<path d="M100.183 143.404H66.6934C66.2816 143.404 65.9492 143.071 65.9492 142.658V134.204C65.9492 133.791 66.2816 133.458 66.6934 133.458H100.183C100.595 133.458 100.927 133.791 100.927 134.204V142.658C100.927 143.071 100.595 143.404 100.183 143.404ZM66.6934 133.955C66.557 133.955 66.4454 134.067 66.4454 134.204V142.658C66.4454 142.795 66.557 142.907 66.6934 142.907H100.183C100.319 142.907 100.431 142.795 100.431 142.658V134.204C100.431 134.067 100.319 133.955 100.183 133.955H66.6934Z" fill="#3F3D56"/>
<path d="M108.617 143.653C111.083 143.653 113.082 141.649 113.082 139.177C113.082 136.705 111.083 134.701 108.617 134.701C106.151 134.701 104.152 136.705 104.152 139.177C104.152 141.649 106.151 143.653 108.617 143.653Z" fill="#025FC9"/>
<path d="M110.105 143.156C107.503 143.156 105.392 141.039 105.392 138.431C105.392 135.823 107.503 133.706 110.105 133.706C112.708 133.706 114.819 135.823 114.819 138.431C114.816 141.039 112.708 143.153 110.105 143.156ZM110.105 134.204C107.776 134.204 105.888 136.096 105.888 138.431C105.888 140.766 107.776 142.658 110.105 142.658C112.435 142.658 114.323 140.766 114.323 138.431C114.32 136.099 112.432 134.206 110.105 134.204Z" fill="#3F3D56"/>
<path d="M110.172 140.194L107.771 137.787L108.473 137.083L110.038 138.655L114.414 132.423L115.226 132.998L110.172 140.194Z" fill="#3F3D56"/>
<path opacity="0.1" d="M107.602 78.1635H10.0691V12.6692L107.602 78.1635Z" fill="#727272"/>
<path d="M143.62 76.873H131.39V75.9902C131.39 75.8932 131.31 75.8162 131.216 75.8162H127.024C126.927 75.8162 126.85 75.8957 126.85 75.9902V76.873H124.231V75.9902C124.231 75.8932 124.151 75.8162 124.057 75.8162H119.864C119.768 75.8162 119.691 75.8957 119.691 75.9902V76.873H117.071V75.9902C117.071 75.8932 116.992 75.8162 116.898 75.8162H112.705C112.608 75.8162 112.532 75.8957 112.532 75.9902V76.873H109.912V75.9902C109.912 75.8932 109.833 75.8162 109.738 75.8162H105.546C105.449 75.8162 105.372 75.8957 105.372 75.9902V76.873H102.753V75.9902C102.753 75.8932 102.673 75.8162 102.579 75.8162H98.3867C98.2899 75.8162 98.213 75.8957 98.213 75.9902V76.873H95.5934V75.9902C95.5934 75.8932 95.514 75.8162 95.4198 75.8162H91.2274C91.1307 75.8162 91.0537 75.8957 91.0537 75.9902V76.873H88.4341V75.9902C88.4341 75.8932 88.3548 75.8162 88.2605 75.8162H55.4137C55.3169 75.8162 55.24 75.8957 55.24 75.9902V76.873H52.6204V75.9902C52.6204 75.8932 52.541 75.8162 52.4468 75.8162H48.2544C48.1576 75.8162 48.0807 75.8957 48.0807 75.9902V76.873H45.4611V75.9902C45.4611 75.8932 45.3818 75.8162 45.2875 75.8162H41.0951C40.9984 75.8162 40.9215 75.8957 40.9215 75.9902V76.873H38.3019V75.9902C38.3019 75.8932 38.2225 75.8162 38.1282 75.8162H33.9358C33.8391 75.8162 33.7622 75.8957 33.7622 75.9902V76.873H31.1426V75.9902C31.1426 75.8932 31.0632 75.8162 30.9689 75.8162H26.7766C26.6798 75.8162 26.6029 75.8957 26.6029 75.9902V76.873H23.9833V75.9902C23.9833 75.8932 23.9039 75.8162 23.8097 75.8162H19.6173C19.5206 75.8162 19.4437 75.8957 19.4437 75.9902V76.873H16.824V75.9902C16.824 75.8932 16.7447 75.8162 16.6504 75.8162H12.458C12.3613 75.8162 12.2844 75.8957 12.2844 75.9902V76.873H4.19237C1.87788 76.873 0 78.7553 0 81.0778V82.9775C0 85.3 1.87788 87.1799 4.19237 87.1799H143.617C145.934 87.1799 147.809 85.2975 147.809 82.9775V81.0778C147.809 78.7553 145.932 76.8755 143.617 76.8755L143.62 76.873Z" fill="#3F3D56"/>
<path d="M105.392 54.1356H39.9019C39.4901 54.1356 39.1577 53.8024 39.1577 53.3896V26.0371C39.1577 25.6243 39.4901 25.2911 39.9019 25.2911H105.392C105.804 25.2911 106.136 25.6243 106.136 26.0371V53.3896C106.136 53.8024 105.804 54.1356 105.392 54.1356ZM39.9019 25.7885C39.7655 25.7885 39.6539 25.9004 39.6539 26.0371V53.3896C39.6539 53.5264 39.7655 53.6383 39.9019 53.6383H105.392C105.529 53.6383 105.64 53.5264 105.64 53.3896V26.0371C105.64 25.9004 105.529 25.7885 105.392 25.7885H39.9019Z" fill="#3F3D56"/>
<path d="M47.344 41.2053H44.3671C43.9553 41.2053 43.6229 40.8721 43.6229 40.4593V37.4754C43.6229 37.0626 43.9553 36.7294 44.3671 36.7294H47.344C47.7558 36.7294 48.0882 37.0626 48.0882 37.4754V40.4593C48.0882 40.8721 47.7558 41.2053 47.344 41.2053ZM44.3671 37.2267C44.2307 37.2267 44.1191 37.3386 44.1191 37.4754V40.4593C44.1191 40.5961 44.2307 40.708 44.3671 40.708H47.344C47.4804 40.708 47.592 40.5961 47.592 40.4593V37.4754C47.592 37.3386 47.4804 37.2267 47.344 37.2267H44.3671Z" fill="#3F3D56"/>
<path d="M100.431 40.708H43.871V41.2053H100.431V40.708Z" fill="#3F3D56"/>
<path d="M247.536 67.0659H65.701V67.5632H247.536V67.0659Z" fill="#3F3D56"/>
<path d="M65.7011 70.547C67.6192 70.547 69.1741 68.9884 69.1741 67.0658C69.1741 65.1432 67.6192 63.5846 65.7011 63.5846C63.783 63.5846 62.2281 65.1432 62.2281 67.0658C62.2281 68.9884 63.783 70.547 65.7011 70.547Z" fill="#3F3D56"/>
<path d="M247.536 70.2984C249.043 70.2984 250.264 69.0738 250.264 67.5632C250.264 66.0526 249.043 64.8279 247.536 64.8279C246.029 64.8279 244.807 66.0526 244.807 67.5632C244.807 69.0738 246.029 70.2984 247.536 70.2984Z" fill="#3F3D56"/>
<path d="M260.931 125.252C262.438 125.252 263.66 124.027 263.66 122.517C263.66 121.006 262.438 119.782 260.931 119.782C259.424 119.782 258.203 121.006 258.203 122.517C258.203 124.027 259.424 125.252 260.931 125.252Z" fill="#3F3D56"/>
<path d="M79.8411 125.252C81.3481 125.252 82.5698 124.027 82.5698 122.517C82.5698 121.006 81.3481 119.782 79.8411 119.782C78.334 119.782 77.1123 121.006 77.1123 122.517C77.1123 124.027 78.334 125.252 79.8411 125.252Z" fill="#3F3D56"/>
</g>
<defs>
<clipPath id="clip0_329_1028">
<rect width="273" height="172" fill="white"/>
</clipPath>
</defs>
</svg>
